<mxfile host="Electron" modified="2024-02-04T12:56:31.435Z" agent="Mozilla/5.0 (Windows NT 10.0; Win64; x64) AppleWebKit/537.36 (KHTML, like Gecko) draw.io/21.6.8 Chrome/114.0.5735.289 Electron/25.5.0 Safari/537.36" etag="r8eD1h_MApKWeQ7qgSrt" version="21.6.8" type="device" pages="4">
  <diagram name="Iban-Verification" id="k9KWd9McnM64h3fY_YzZ">
    <mxGraphModel dx="1674" dy="3044" grid="1" gridSize="4" guides="1" tooltips="1" connect="1" arrows="1" fold="1" page="1" pageScale="1" pageWidth="850" pageHeight="1100" math="0" shadow="0">
      <root>
        <mxCell id="XuKHMtvTE8CdLiK7lEFD-0" />
        <mxCell id="XuKHMtvTE8CdLiK7lEFD-1" parent="XuKHMtvTE8CdLiK7lEFD-0" />
        <mxCell id="XuKHMtvTE8CdLiK7lEFD-2" value="Check is ARB customer" style="shape=umlFrame;whiteSpace=wrap;html=1;width=108;height=36;fillColor=#e1d5e7;strokeColor=#9673a6;" parent="XuKHMtvTE8CdLiK7lEFD-1" vertex="1">
          <mxGeometry x="234" y="-939" width="1326" height="1067" as="geometry" />
        </mxCell>
        <mxCell id="XuKHMtvTE8CdLiK7lEFD-3" value="Check Verify&lt;br&gt;IBAN Status" style="shape=umlFrame;whiteSpace=wrap;html=1;width=108;height=36;fillColor=#dae8fc;strokeColor=#6c8ebf;" parent="XuKHMtvTE8CdLiK7lEFD-1" vertex="1">
          <mxGeometry x="476" y="-900" width="764" height="968" as="geometry" />
        </mxCell>
        <mxCell id="XuKHMtvTE8CdLiK7lEFD-5" value="Disbursement MS(sarie)" style="shape=umlLifeline;perimeter=lifelinePerimeter;container=0;collapsible=0;recursiveResize=0;rounded=0;shadow=0;strokeWidth=1;" parent="XuKHMtvTE8CdLiK7lEFD-1" vertex="1">
          <mxGeometry x="1132" y="-1320" width="136" height="1404" as="geometry" />
        </mxCell>
        <mxCell id="XuKHMtvTE8CdLiK7lEFD-10" value="Loan Execution MS" style="shape=umlLifeline;perimeter=lifelinePerimeter;container=0;collapsible=0;recursiveResize=0;rounded=0;shadow=0;strokeWidth=1;" parent="XuKHMtvTE8CdLiK7lEFD-1" vertex="1">
          <mxGeometry x="792" y="-1320" width="115.5" height="1408" as="geometry" />
        </mxCell>
        <mxCell id="XuKHMtvTE8CdLiK7lEFD-11" value="Emkan APP" style="shape=umlLifeline;perimeter=lifelinePerimeter;container=0;collapsible=0;recursiveResize=0;rounded=0;shadow=0;strokeWidth=1;" parent="XuKHMtvTE8CdLiK7lEFD-1" vertex="1">
          <mxGeometry x="540" y="-1320" width="103" height="1408" as="geometry" />
        </mxCell>
        <mxCell id="XuKHMtvTE8CdLiK7lEFD-12" value="ARB" style="shape=umlLifeline;perimeter=lifelinePerimeter;container=0;collapsible=0;recursiveResize=0;rounded=0;shadow=0;strokeWidth=1;" parent="XuKHMtvTE8CdLiK7lEFD-1" vertex="1">
          <mxGeometry x="1704" y="-1320" width="100" height="1276" as="geometry" />
        </mxCell>
        <mxCell id="XuKHMtvTE8CdLiK7lEFD-13" value="Customer" style="shape=umlLifeline;participant=umlActor;perimeter=lifelinePerimeter;whiteSpace=wrap;html=1;container=1;collapsible=0;recursiveResize=0;verticalAlign=top;spacingTop=36;outlineConnect=0;" parent="XuKHMtvTE8CdLiK7lEFD-1" vertex="1">
          <mxGeometry x="320" y="-1324" width="20" height="1412" as="geometry" />
        </mxCell>
        <mxCell id="XuKHMtvTE8CdLiK7lEFD-14" value="IBAN Verification" style="shape=note;size=20;whiteSpace=wrap;html=1;rounded=1;shadow=0;fontSize=12;strokeWidth=1;" parent="XuKHMtvTE8CdLiK7lEFD-1" vertex="1">
          <mxGeometry x="1132" y="-1460" width="310" height="60" as="geometry" />
        </mxCell>
        <mxCell id="XuKHMtvTE8CdLiK7lEFD-15" value="" style="html=1;points=[];perimeter=orthogonalPerimeter;rounded=1;shadow=0;fontSize=12;strokeWidth=1;" parent="XuKHMtvTE8CdLiK7lEFD-1" vertex="1">
          <mxGeometry x="586.5" y="-1224" width="10" height="1276" as="geometry" />
        </mxCell>
        <mxCell id="XuKHMtvTE8CdLiK7lEFD-27" value="Kastle" style="shape=umlLifeline;perimeter=lifelinePerimeter;container=0;collapsible=0;recursiveResize=0;rounded=0;shadow=0;strokeWidth=1;" parent="XuKHMtvTE8CdLiK7lEFD-1" vertex="1">
          <mxGeometry x="2000" y="-1320" width="112" height="1288" as="geometry" />
        </mxCell>
        <mxCell id="XuKHMtvTE8CdLiK7lEFD-43" value="Dashboard MS" style="shape=umlLifeline;perimeter=lifelinePerimeter;container=0;collapsible=0;recursiveResize=0;rounded=0;shadow=0;strokeWidth=1;" parent="XuKHMtvTE8CdLiK7lEFD-1" vertex="1">
          <mxGeometry x="1416" y="-1320" width="112" height="1272" as="geometry" />
        </mxCell>
        <mxCell id="XuKHMtvTE8CdLiK7lEFD-66" value="DMS MS" style="shape=umlLifeline;perimeter=lifelinePerimeter;container=0;collapsible=0;recursiveResize=0;rounded=0;shadow=0;strokeWidth=1;" parent="XuKHMtvTE8CdLiK7lEFD-1" vertex="1">
          <mxGeometry x="2247" y="-1320" width="112" height="1284" as="geometry" />
        </mxCell>
        <mxCell id="XuKHMtvTE8CdLiK7lEFD-83" value="&lt;span style=&quot;font-size: 11px;&quot;&gt;if non ARB And not NL&lt;br&gt;&lt;/span&gt;" style="text;html=1;align=center;verticalAlign=middle;resizable=0;points=[];autosize=1;fillColor=#e1d5e7;strokeColor=#9673a6;" parent="XuKHMtvTE8CdLiK7lEFD-1" vertex="1">
          <mxGeometry x="260" y="-884" width="132" height="28" as="geometry" />
        </mxCell>
        <mxCell id="XuKHMtvTE8CdLiK7lEFD-85" style="edgeStyle=orthogonalEdgeStyle;rounded=0;orthogonalLoop=1;jettySize=auto;html=1;" parent="XuKHMtvTE8CdLiK7lEFD-1" edge="1">
          <mxGeometry relative="1" as="geometry">
            <mxPoint x="596" y="-908" as="sourcePoint" />
            <mxPoint x="842" y="-908" as="targetPoint" />
            <Array as="points" />
          </mxGeometry>
        </mxCell>
        <mxCell id="XuKHMtvTE8CdLiK7lEFD-86" value="/CalculateIBANLookup" style="text;html=1;align=center;verticalAlign=middle;resizable=0;points=[];autosize=1;strokeColor=none;" parent="XuKHMtvTE8CdLiK7lEFD-1" vertex="1">
          <mxGeometry x="643" y="-936" width="144" height="28" as="geometry" />
        </mxCell>
        <mxCell id="XuKHMtvTE8CdLiK7lEFD-87" value="" style="html=1;points=[];perimeter=orthogonalPerimeter;rounded=1;shadow=0;fontSize=12;strokeWidth=1;" parent="XuKHMtvTE8CdLiK7lEFD-1" vertex="1">
          <mxGeometry x="842.75" y="-928" width="10" height="956" as="geometry" />
        </mxCell>
        <mxCell id="XuKHMtvTE8CdLiK7lEFD-88" value="" style="endArrow=classic;html=1;rounded=0;entryX=0.2;entryY=0.077;entryDx=0;entryDy=0;entryPerimeter=0;exitX=0.825;exitY=0.078;exitDx=0;exitDy=0;exitPerimeter=0;" parent="XuKHMtvTE8CdLiK7lEFD-1" edge="1">
          <mxGeometry width="50" height="50" relative="1" as="geometry">
            <mxPoint x="852" y="-909" as="sourcePoint" />
            <mxPoint x="1196" y="-909" as="targetPoint" />
          </mxGeometry>
        </mxCell>
        <mxCell id="XuKHMtvTE8CdLiK7lEFD-89" value="/CalculateIBANLookup" style="text;html=1;align=center;verticalAlign=middle;resizable=0;points=[];autosize=1;strokeColor=none;" parent="XuKHMtvTE8CdLiK7lEFD-1" vertex="1">
          <mxGeometry x="950" y="-933" width="144" height="28" as="geometry" />
        </mxCell>
        <mxCell id="XuKHMtvTE8CdLiK7lEFD-90" value="" style="html=1;points=[];perimeter=orthogonalPerimeter;rounded=1;shadow=0;fontSize=12;strokeWidth=1;" parent="XuKHMtvTE8CdLiK7lEFD-1" vertex="1">
          <mxGeometry x="1195" y="-920" width="10" height="944" as="geometry" />
        </mxCell>
        <mxCell id="XuKHMtvTE8CdLiK7lEFD-91" value="return" style="html=1;verticalAlign=bottom;endArrow=open;dashed=1;endSize=8;rounded=0;shadow=0;fontSize=12;fontColor=#000000;entryX=0.528;entryY=0.143;entryDx=0;entryDy=0;entryPerimeter=0;exitX=0;exitY=0.923;exitDx=0;exitDy=0;exitPerimeter=0;" parent="XuKHMtvTE8CdLiK7lEFD-1" edge="1">
          <mxGeometry x="0.004" relative="1" as="geometry">
            <mxPoint x="850.9939999999999" y="-325.0000000000001" as="targetPoint" />
            <mxPoint x="1193.01" y="-324.8939999999999" as="sourcePoint" />
            <mxPoint as="offset" />
          </mxGeometry>
        </mxCell>
        <mxCell id="XuKHMtvTE8CdLiK7lEFD-92" value="return" style="html=1;verticalAlign=bottom;endArrow=open;dashed=1;endSize=8;rounded=0;shadow=0;fontSize=12;fontColor=#000000;entryX=0.528;entryY=0.143;entryDx=0;entryDy=0;entryPerimeter=0;" parent="XuKHMtvTE8CdLiK7lEFD-1" edge="1">
          <mxGeometry x="0.004" relative="1" as="geometry">
            <mxPoint x="595.2539999999999" y="-325.0000000000001" as="targetPoint" />
            <mxPoint x="842.75" y="-325" as="sourcePoint" />
            <mxPoint as="offset" />
          </mxGeometry>
        </mxCell>
        <mxCell id="XuKHMtvTE8CdLiK7lEFD-93" value="" style="line;strokeWidth=1;fillColor=none;align=left;verticalAlign=middle;spacingTop=-1;spacingLeft=3;spacingRight=3;rotatable=0;labelPosition=right;points=[];portConstraint=eastwest;" parent="XuKHMtvTE8CdLiK7lEFD-1" vertex="1">
          <mxGeometry x="477" y="-746" width="763" height="8" as="geometry" />
        </mxCell>
        <mxCell id="XuKHMtvTE8CdLiK7lEFD-94" value="return" style="html=1;verticalAlign=bottom;endArrow=open;dashed=1;endSize=8;rounded=0;shadow=0;fontSize=12;fontColor=#000000;entryX=0.528;entryY=0.143;entryDx=0;entryDy=0;entryPerimeter=0;exitX=0;exitY=0.923;exitDx=0;exitDy=0;exitPerimeter=0;" parent="XuKHMtvTE8CdLiK7lEFD-1" edge="1">
          <mxGeometry x="0.004" relative="1" as="geometry">
            <mxPoint x="850.9939999999999" y="-677.0000000000001" as="targetPoint" />
            <mxPoint x="1193.01" y="-676.8939999999999" as="sourcePoint" />
            <mxPoint as="offset" />
          </mxGeometry>
        </mxCell>
        <mxCell id="XuKHMtvTE8CdLiK7lEFD-95" value="return" style="html=1;verticalAlign=bottom;endArrow=open;dashed=1;endSize=8;rounded=0;shadow=0;fontSize=12;fontColor=#000000;entryX=0.528;entryY=0.143;entryDx=0;entryDy=0;entryPerimeter=0;" parent="XuKHMtvTE8CdLiK7lEFD-1" edge="1">
          <mxGeometry x="0.004" relative="1" as="geometry">
            <mxPoint x="595.2539999999999" y="-678.0000000000001" as="targetPoint" />
            <mxPoint x="842.75" y="-678" as="sourcePoint" />
            <mxPoint as="offset" />
          </mxGeometry>
        </mxCell>
        <mxCell id="XuKHMtvTE8CdLiK7lEFD-96" value="IBAN , Bank(notVerified)" style="edgeLabel;html=1;align=center;verticalAlign=middle;resizable=0;points=[];" parent="XuKHMtvTE8CdLiK7lEFD-1" vertex="1" connectable="0">
          <mxGeometry x="720.000909090909" y="-670" as="geometry" />
        </mxCell>
        <mxCell id="XuKHMtvTE8CdLiK7lEFD-97" value="" style="endArrow=classic;html=1;rounded=0;entryX=0.5;entryY=0.071;entryDx=0;entryDy=0;entryPerimeter=0;exitX=0.825;exitY=0.078;exitDx=0;exitDy=0;exitPerimeter=0;" parent="XuKHMtvTE8CdLiK7lEFD-1" target="XuKHMtvTE8CdLiK7lEFD-99" edge="1">
          <mxGeometry width="50" height="50" relative="1" as="geometry">
            <mxPoint x="597" y="-1212" as="sourcePoint" />
            <mxPoint x="941" y="-1212" as="targetPoint" />
          </mxGeometry>
        </mxCell>
        <mxCell id="XuKHMtvTE8CdLiK7lEFD-98" value="/dashboard" style="text;html=1;align=center;verticalAlign=middle;resizable=0;points=[];autosize=1;strokeColor=none;" parent="XuKHMtvTE8CdLiK7lEFD-1" vertex="1">
          <mxGeometry x="990" y="-1236" width="84" height="28" as="geometry" />
        </mxCell>
        <mxCell id="XuKHMtvTE8CdLiK7lEFD-99" value="" style="html=1;points=[];perimeter=orthogonalPerimeter;rounded=1;shadow=0;fontSize=12;strokeWidth=1;" parent="XuKHMtvTE8CdLiK7lEFD-1" vertex="1">
          <mxGeometry x="1466" y="-1215" width="10" height="56" as="geometry" />
        </mxCell>
        <mxCell id="XuKHMtvTE8CdLiK7lEFD-100" value="return" style="html=1;verticalAlign=bottom;endArrow=open;dashed=1;endSize=8;rounded=0;shadow=0;fontSize=12;fontColor=#000000;entryX=0.528;entryY=0.143;entryDx=0;entryDy=0;entryPerimeter=0;exitX=-0.082;exitY=0.872;exitDx=0;exitDy=0;exitPerimeter=0;" parent="XuKHMtvTE8CdLiK7lEFD-1" source="XuKHMtvTE8CdLiK7lEFD-99" edge="1">
          <mxGeometry x="0.004" relative="1" as="geometry">
            <mxPoint x="596.9839999999999" y="-1166.1100000000001" as="targetPoint" />
            <mxPoint x="1463" y="-1166" as="sourcePoint" />
            <mxPoint as="offset" />
          </mxGeometry>
        </mxCell>
        <mxCell id="XuKHMtvTE8CdLiK7lEFD-101" value="" style="endArrow=classic;html=1;rounded=0;entryX=0.2;entryY=0.077;entryDx=0;entryDy=0;entryPerimeter=0;exitX=1;exitY=0.089;exitDx=0;exitDy=0;exitPerimeter=0;" parent="XuKHMtvTE8CdLiK7lEFD-1" source="XuKHMtvTE8CdLiK7lEFD-99" edge="1">
          <mxGeometry width="50" height="50" relative="1" as="geometry">
            <mxPoint x="1708" y="-1211" as="sourcePoint" />
            <mxPoint x="2052" y="-1211" as="targetPoint" />
          </mxGeometry>
        </mxCell>
        <mxCell id="XuKHMtvTE8CdLiK7lEFD-102" value="/dashboard" style="text;html=1;align=center;verticalAlign=middle;resizable=0;points=[];autosize=1;strokeColor=none;" parent="XuKHMtvTE8CdLiK7lEFD-1" vertex="1">
          <mxGeometry x="1711" y="-1243" width="84" height="28" as="geometry" />
        </mxCell>
        <mxCell id="XuKHMtvTE8CdLiK7lEFD-103" value="" style="html=1;points=[];perimeter=orthogonalPerimeter;rounded=1;shadow=0;fontSize=12;strokeWidth=1;" parent="XuKHMtvTE8CdLiK7lEFD-1" vertex="1">
          <mxGeometry x="2050" y="-1218" width="10" height="56" as="geometry" />
        </mxCell>
        <mxCell id="XuKHMtvTE8CdLiK7lEFD-104" value="return" style="html=1;verticalAlign=bottom;endArrow=open;dashed=1;endSize=8;rounded=0;shadow=0;fontSize=12;fontColor=#000000;exitX=0;exitY=0.923;exitDx=0;exitDy=0;exitPerimeter=0;" parent="XuKHMtvTE8CdLiK7lEFD-1" target="XuKHMtvTE8CdLiK7lEFD-99" edge="1">
          <mxGeometry x="0.004" relative="1" as="geometry">
            <mxPoint x="1707.984" y="-1165.1100000000001" as="targetPoint" />
            <mxPoint x="2050" y="-1165.004" as="sourcePoint" />
            <mxPoint as="offset" />
          </mxGeometry>
        </mxCell>
        <mxCell id="XuKHMtvTE8CdLiK7lEFD-105" value="IBAN , Bank(notVerified)" style="edgeLabel;html=1;align=center;verticalAlign=middle;resizable=0;points=[];" parent="XuKHMtvTE8CdLiK7lEFD-1" vertex="1" connectable="0">
          <mxGeometry x="1016.000909090909" y="-669" as="geometry" />
        </mxCell>
        <mxCell id="XuKHMtvTE8CdLiK7lEFD-106" value="Lookup MS" style="shape=umlLifeline;perimeter=lifelinePerimeter;container=0;collapsible=0;recursiveResize=0;rounded=0;shadow=0;strokeWidth=1;" parent="XuKHMtvTE8CdLiK7lEFD-1" vertex="1">
          <mxGeometry x="2431" y="-1320" width="112" height="1276" as="geometry" />
        </mxCell>
        <mxCell id="XuKHMtvTE8CdLiK7lEFD-112" value="&lt;font style=&quot;font-size: 11px;&quot;&gt;&lt;font style=&quot;&quot;&gt;if IBAN &lt;/font&gt;&lt;font style=&quot;&quot;&gt;Status &lt;/font&gt;&lt;font style=&quot;&quot;&gt;= ((&lt;/font&gt;&lt;/font&gt;Not active and numOfTrials &amp;gt;=3) or&amp;nbsp;&lt;font style=&quot;border-color: var(--border-color); font-size: 11px;&quot;&gt;(&lt;/font&gt;Not match and numOfTrials &amp;gt;=3)&amp;nbsp; or&amp;nbsp;&lt;font style=&quot;border-color: var(--border-color); font-size: 11px;&quot;&gt;(timedout&lt;/font&gt;&amp;nbsp;and numOfTrials &amp;gt;=3)&amp;nbsp;)" style="text;html=1;align=center;verticalAlign=middle;resizable=0;points=[];autosize=1;fillColor=#dae8fc;strokeColor=#6c8ebf;" parent="XuKHMtvTE8CdLiK7lEFD-1" vertex="1">
          <mxGeometry x="484" y="-727" width="672" height="28" as="geometry" />
        </mxCell>
        <mxCell id="XuKHMtvTE8CdLiK7lEFD-113" value="&lt;font style=&quot;font-size: 10px;&quot;&gt;&lt;font style=&quot;&quot;&gt;&lt;font style=&quot;&quot;&gt;if IBAN &lt;/font&gt;&lt;font style=&quot;&quot;&gt;Status &lt;/font&gt;&lt;font style=&quot;&quot;&gt;=&amp;nbsp;&lt;/font&gt;&lt;/font&gt;&lt;/font&gt;&lt;font style=&quot;border-color: var(--border-color); font-size: 11px;&quot;&gt;(&lt;/font&gt;Not active and numOfTrials &amp;lt;3)" style="text;html=1;align=center;verticalAlign=middle;resizable=0;points=[];autosize=1;fillColor=#dae8fc;strokeColor=#6c8ebf;" parent="XuKHMtvTE8CdLiK7lEFD-1" vertex="1">
          <mxGeometry x="484" y="-372" width="264" height="28" as="geometry" />
        </mxCell>
        <mxCell id="XuKHMtvTE8CdLiK7lEFD-124" value="" style="line;strokeWidth=1;fillColor=none;align=left;verticalAlign=middle;spacingTop=-1;spacingLeft=3;spacingRight=3;rotatable=0;labelPosition=right;points=[];portConstraint=eastwest;" parent="XuKHMtvTE8CdLiK7lEFD-1" vertex="1">
          <mxGeometry x="477" y="-623" width="763" height="8" as="geometry" />
        </mxCell>
        <mxCell id="XuKHMtvTE8CdLiK7lEFD-125" value="&lt;font style=&quot;font-size: 11px;&quot;&gt;&lt;font style=&quot;&quot;&gt;if IBAN &lt;/font&gt;&lt;font style=&quot;&quot;&gt;Status &lt;/font&gt;&lt;font style=&quot;&quot;&gt;=&amp;nbsp;&lt;/font&gt;&lt;/font&gt;((has call same AppId) verified&amp;nbsp;)" style="text;html=1;align=center;verticalAlign=middle;resizable=0;points=[];autosize=1;fillColor=#dae8fc;strokeColor=#6c8ebf;" parent="XuKHMtvTE8CdLiK7lEFD-1" vertex="1">
          <mxGeometry x="484" y="-852" width="272" height="28" as="geometry" />
        </mxCell>
        <mxCell id="XuKHMtvTE8CdLiK7lEFD-126" value="return" style="html=1;verticalAlign=bottom;endArrow=open;dashed=1;endSize=8;rounded=0;shadow=0;fontSize=12;fontColor=#000000;entryX=0.528;entryY=0.143;entryDx=0;entryDy=0;entryPerimeter=0;exitX=0;exitY=0.923;exitDx=0;exitDy=0;exitPerimeter=0;" parent="XuKHMtvTE8CdLiK7lEFD-1" edge="1">
          <mxGeometry x="0.004" relative="1" as="geometry">
            <mxPoint x="849.9939999999999" y="-807.0000000000001" as="targetPoint" />
            <mxPoint x="1192.01" y="-806.8939999999999" as="sourcePoint" />
            <mxPoint as="offset" />
          </mxGeometry>
        </mxCell>
        <mxCell id="XuKHMtvTE8CdLiK7lEFD-127" value="return" style="html=1;verticalAlign=bottom;endArrow=open;dashed=1;endSize=8;rounded=0;shadow=0;fontSize=12;fontColor=#000000;entryX=0.528;entryY=0.143;entryDx=0;entryDy=0;entryPerimeter=0;" parent="XuKHMtvTE8CdLiK7lEFD-1" edge="1">
          <mxGeometry x="0.004" relative="1" as="geometry">
            <mxPoint x="594.2539999999999" y="-805.0000000000001" as="targetPoint" />
            <mxPoint x="841.75" y="-805" as="sourcePoint" />
            <mxPoint as="offset" />
          </mxGeometry>
        </mxCell>
        <mxCell id="XuKHMtvTE8CdLiK7lEFD-128" value="IBAN , Bank(Verified)" style="edgeLabel;html=1;align=center;verticalAlign=middle;resizable=0;points=[];" parent="XuKHMtvTE8CdLiK7lEFD-1" vertex="1" connectable="0">
          <mxGeometry x="719.000909090909" y="-797" as="geometry" />
        </mxCell>
        <mxCell id="XuKHMtvTE8CdLiK7lEFD-129" value="IBAN, Bank(Verified)" style="edgeLabel;html=1;align=center;verticalAlign=middle;resizable=0;points=[];" parent="XuKHMtvTE8CdLiK7lEFD-1" vertex="1" connectable="0">
          <mxGeometry x="1015.000909090909" y="-797" as="geometry" />
        </mxCell>
        <mxCell id="XuKHMtvTE8CdLiK7lEFD-130" value="Enter IbanScreen" style="edgeStyle=orthogonalEdgeStyle;html=1;align=left;spacingLeft=2;endArrow=block;rounded=0;entryX=1;entryY=0;" parent="XuKHMtvTE8CdLiK7lEFD-1" edge="1">
          <mxGeometry x="-0.2593" y="11" relative="1" as="geometry">
            <mxPoint x="597.5" y="-1143" as="sourcePoint" />
            <Array as="points">
              <mxPoint x="611.5" y="-1143" />
              <mxPoint x="611.5" y="-1123" />
            </Array>
            <mxPoint as="offset" />
            <mxPoint x="596.5" y="-1123" as="targetPoint" />
          </mxGeometry>
        </mxCell>
        <mxCell id="XuKHMtvTE8CdLiK7lEFD-136" value="" style="endArrow=classic;html=1;rounded=0;entryX=0.625;entryY=0.034;entryDx=0;entryDy=0;entryPerimeter=0;" parent="XuKHMtvTE8CdLiK7lEFD-1" source="XuKHMtvTE8CdLiK7lEFD-11" edge="1">
          <mxGeometry width="50" height="50" relative="1" as="geometry">
            <mxPoint x="856" y="-1050" as="sourcePoint" />
            <mxPoint x="2485.25" y="-1050.266" as="targetPoint" />
          </mxGeometry>
        </mxCell>
        <mxCell id="XuKHMtvTE8CdLiK7lEFD-137" value="/getBankLookup" style="text;html=1;align=center;verticalAlign=middle;resizable=0;points=[];autosize=1;strokeColor=none;" parent="XuKHMtvTE8CdLiK7lEFD-1" vertex="1">
          <mxGeometry x="1472" y="-1080" width="108" height="28" as="geometry" />
        </mxCell>
        <mxCell id="XuKHMtvTE8CdLiK7lEFD-138" value="return" style="html=1;verticalAlign=bottom;endArrow=open;dashed=1;endSize=8;rounded=0;shadow=0;fontSize=12;fontColor=#000000;exitX=0.478;exitY=0.317;exitDx=0;exitDy=0;exitPerimeter=0;" parent="XuKHMtvTE8CdLiK7lEFD-1" target="XuKHMtvTE8CdLiK7lEFD-11" edge="1">
          <mxGeometry x="0.004" relative="1" as="geometry">
            <mxPoint x="854.0234999999998" y="-1008.912" as="targetPoint" />
            <mxPoint x="2484.536" y="-1006.8249999999998" as="sourcePoint" />
            <mxPoint as="offset" />
          </mxGeometry>
        </mxCell>
        <mxCell id="XuKHMtvTE8CdLiK7lEFD-139" value="" style="html=1;points=[];perimeter=orthogonalPerimeter;rounded=1;shadow=0;fontSize=12;strokeWidth=1;" parent="XuKHMtvTE8CdLiK7lEFD-1" vertex="1">
          <mxGeometry x="2483" y="-1055" width="10" height="51" as="geometry" />
        </mxCell>
        <mxCell id="XuKHMtvTE8CdLiK7lEFD-141" value="IBAN , Bank(notActive)" style="edgeLabel;html=1;align=center;verticalAlign=middle;resizable=0;points=[];" parent="XuKHMtvTE8CdLiK7lEFD-1" vertex="1" connectable="0">
          <mxGeometry x="720.000909090909" y="-315" as="geometry">
            <mxPoint x="-2" y="-1" as="offset" />
          </mxGeometry>
        </mxCell>
        <mxCell id="XuKHMtvTE8CdLiK7lEFD-142" value="return" style="html=1;verticalAlign=bottom;endArrow=open;dashed=1;endSize=8;rounded=0;shadow=0;fontSize=12;fontColor=#000000;entryX=0.528;entryY=0.143;entryDx=0;entryDy=0;entryPerimeter=0;exitX=0;exitY=0.923;exitDx=0;exitDy=0;exitPerimeter=0;" parent="XuKHMtvTE8CdLiK7lEFD-1" edge="1">
          <mxGeometry x="0.004" relative="1" as="geometry">
            <mxPoint x="853.9939999999999" y="-236.0000000000001" as="targetPoint" />
            <mxPoint x="1196.01" y="-235.8939999999999" as="sourcePoint" />
            <mxPoint as="offset" />
          </mxGeometry>
        </mxCell>
        <mxCell id="XuKHMtvTE8CdLiK7lEFD-143" value="return" style="html=1;verticalAlign=bottom;endArrow=open;dashed=1;endSize=8;rounded=0;shadow=0;fontSize=12;fontColor=#000000;entryX=0.528;entryY=0.143;entryDx=0;entryDy=0;entryPerimeter=0;" parent="XuKHMtvTE8CdLiK7lEFD-1" edge="1">
          <mxGeometry x="0.004" relative="1" as="geometry">
            <mxPoint x="598.2539999999999" y="-235.0000000000001" as="targetPoint" />
            <mxPoint x="845.75" y="-235" as="sourcePoint" />
            <mxPoint as="offset" />
          </mxGeometry>
        </mxCell>
        <mxCell id="XuKHMtvTE8CdLiK7lEFD-144" value="" style="line;strokeWidth=1;fillColor=none;align=left;verticalAlign=middle;spacingTop=-1;spacingLeft=3;spacingRight=3;rotatable=0;labelPosition=right;points=[];portConstraint=eastwest;" parent="XuKHMtvTE8CdLiK7lEFD-1" vertex="1">
          <mxGeometry x="480" y="-305" width="760" height="8" as="geometry" />
        </mxCell>
        <mxCell id="XuKHMtvTE8CdLiK7lEFD-145" value="&lt;font style=&quot;font-size: 10px;&quot;&gt;&lt;font style=&quot;&quot;&gt;&lt;font style=&quot;&quot;&gt;if IBAN &lt;/font&gt;&lt;font style=&quot;&quot;&gt;Status &lt;/font&gt;&lt;font style=&quot;&quot;&gt;=&amp;nbsp;&lt;/font&gt;&lt;/font&gt;&lt;/font&gt;&lt;font style=&quot;border-color: var(--border-color); font-size: 11px;&quot;&gt;(&lt;/font&gt;Not match and numOfTrials =&amp;lt;3)" style="text;html=1;align=center;verticalAlign=middle;resizable=0;points=[];autosize=1;fillColor=#dae8fc;strokeColor=#6c8ebf;" parent="XuKHMtvTE8CdLiK7lEFD-1" vertex="1">
          <mxGeometry x="484" y="-281" width="276" height="28" as="geometry" />
        </mxCell>
        <mxCell id="XuKHMtvTE8CdLiK7lEFD-146" value="IBAN , Bank(notActive)" style="edgeLabel;html=1;align=center;verticalAlign=middle;resizable=0;points=[];" parent="XuKHMtvTE8CdLiK7lEFD-1" vertex="1" connectable="0">
          <mxGeometry x="1008.000909090909" y="-315" as="geometry">
            <mxPoint x="-2" y="-1" as="offset" />
          </mxGeometry>
        </mxCell>
        <mxCell id="XuKHMtvTE8CdLiK7lEFD-147" value="IBAN , Bank(notMatch)" style="edgeLabel;html=1;align=center;verticalAlign=middle;resizable=0;points=[];" parent="XuKHMtvTE8CdLiK7lEFD-1" vertex="1" connectable="0">
          <mxGeometry x="1022.000909090909" y="-228" as="geometry">
            <mxPoint x="-2" y="-1" as="offset" />
          </mxGeometry>
        </mxCell>
        <mxCell id="XuKHMtvTE8CdLiK7lEFD-148" value="IBAN , Bank(notMatch)" style="edgeLabel;html=1;align=center;verticalAlign=middle;resizable=0;points=[];" parent="XuKHMtvTE8CdLiK7lEFD-1" vertex="1" connectable="0">
          <mxGeometry x="727.0009090909089" y="-228" as="geometry">
            <mxPoint x="-2" y="-1" as="offset" />
          </mxGeometry>
        </mxCell>
        <mxCell id="XuKHMtvTE8CdLiK7lEFD-149" value="return" style="html=1;verticalAlign=bottom;endArrow=open;dashed=1;endSize=8;rounded=0;shadow=0;fontSize=12;fontColor=#000000;entryX=0.528;entryY=0.143;entryDx=0;entryDy=0;entryPerimeter=0;exitX=0;exitY=0.923;exitDx=0;exitDy=0;exitPerimeter=0;" parent="XuKHMtvTE8CdLiK7lEFD-1" edge="1">
          <mxGeometry x="0.004" relative="1" as="geometry">
            <mxPoint x="853.9939999999999" y="-145.0000000000001" as="targetPoint" />
            <mxPoint x="1196.01" y="-144.8939999999999" as="sourcePoint" />
            <mxPoint as="offset" />
          </mxGeometry>
        </mxCell>
        <mxCell id="XuKHMtvTE8CdLiK7lEFD-150" value="return" style="html=1;verticalAlign=bottom;endArrow=open;dashed=1;endSize=8;rounded=0;shadow=0;fontSize=12;fontColor=#000000;entryX=0.528;entryY=0.143;entryDx=0;entryDy=0;entryPerimeter=0;" parent="XuKHMtvTE8CdLiK7lEFD-1" edge="1">
          <mxGeometry x="0.004" relative="1" as="geometry">
            <mxPoint x="598.2539999999999" y="-144.0000000000001" as="targetPoint" />
            <mxPoint x="845.75" y="-144" as="sourcePoint" />
            <mxPoint as="offset" />
          </mxGeometry>
        </mxCell>
        <mxCell id="XuKHMtvTE8CdLiK7lEFD-151" value="" style="line;strokeWidth=1;fillColor=none;align=left;verticalAlign=middle;spacingTop=-1;spacingLeft=3;spacingRight=3;rotatable=0;labelPosition=right;points=[];portConstraint=eastwest;" parent="XuKHMtvTE8CdLiK7lEFD-1" vertex="1">
          <mxGeometry x="476" y="-215" width="764" height="8" as="geometry" />
        </mxCell>
        <mxCell id="XuKHMtvTE8CdLiK7lEFD-152" value="&lt;font style=&quot;font-size: 10px;&quot;&gt;&lt;font style=&quot;&quot;&gt;&lt;font style=&quot;&quot;&gt;if IBAN &lt;/font&gt;&lt;font style=&quot;&quot;&gt;Status &lt;/font&gt;&lt;font style=&quot;&quot;&gt;=&amp;nbsp;&lt;/font&gt;&lt;/font&gt;&lt;/font&gt;&lt;font style=&quot;border-color: var(--border-color); font-size: 11px;&quot;&gt;(&lt;/font&gt;timedout and numOfTrials &amp;lt;3)" style="text;html=1;align=center;verticalAlign=middle;resizable=0;points=[];autosize=1;fillColor=#dae8fc;strokeColor=#6c8ebf;" parent="XuKHMtvTE8CdLiK7lEFD-1" vertex="1">
          <mxGeometry x="484" y="-200" width="260" height="28" as="geometry" />
        </mxCell>
        <mxCell id="XuKHMtvTE8CdLiK7lEFD-153" value="IBAN , Bank(timedout)" style="edgeLabel;html=1;align=center;verticalAlign=middle;resizable=0;points=[];" parent="XuKHMtvTE8CdLiK7lEFD-1" vertex="1" connectable="0">
          <mxGeometry x="1022.0009090909089" y="-137" as="geometry">
            <mxPoint x="-2" y="-1" as="offset" />
          </mxGeometry>
        </mxCell>
        <mxCell id="XuKHMtvTE8CdLiK7lEFD-154" value="IBAN , Bank(timedout)" style="edgeLabel;html=1;align=center;verticalAlign=middle;resizable=0;points=[];" parent="XuKHMtvTE8CdLiK7lEFD-1" vertex="1" connectable="0">
          <mxGeometry x="727.0009090909089" y="-137" as="geometry">
            <mxPoint x="-2" y="-1" as="offset" />
          </mxGeometry>
        </mxCell>
        <mxCell id="XuKHMtvTE8CdLiK7lEFD-155" value="Go to purchase commodity otp screen" style="edgeStyle=orthogonalEdgeStyle;html=1;align=left;spacingLeft=2;endArrow=block;rounded=0;entryX=1;entryY=0;" parent="XuKHMtvTE8CdLiK7lEFD-1" edge="1">
          <mxGeometry x="-0.2593" y="11" relative="1" as="geometry">
            <mxPoint x="597.5" y="-777" as="sourcePoint" />
            <Array as="points">
              <mxPoint x="611.5" y="-777" />
              <mxPoint x="611.5" y="-757" />
            </Array>
            <mxPoint as="offset" />
            <mxPoint x="596.5" y="-757" as="targetPoint" />
          </mxGeometry>
        </mxCell>
        <mxCell id="XuKHMtvTE8CdLiK7lEFD-156" value="Go to upload Iban screen" style="edgeStyle=orthogonalEdgeStyle;html=1;align=left;spacingLeft=2;endArrow=block;rounded=0;entryX=1;entryY=0;" parent="XuKHMtvTE8CdLiK7lEFD-1" edge="1">
          <mxGeometry x="-0.2593" y="11" relative="1" as="geometry">
            <mxPoint x="597.5" y="-655" as="sourcePoint" />
            <Array as="points">
              <mxPoint x="611.5" y="-655" />
              <mxPoint x="611.5" y="-635" />
            </Array>
            <mxPoint as="offset" />
            <mxPoint x="596.5" y="-635" as="targetPoint" />
          </mxGeometry>
        </mxCell>
        <mxCell id="XuKHMtvTE8CdLiK7lEFD-157" value="return" style="html=1;verticalAlign=bottom;endArrow=open;dashed=1;endSize=8;rounded=0;shadow=0;fontSize=12;fontColor=#000000;entryX=0.528;entryY=0.143;entryDx=0;entryDy=0;entryPerimeter=0;exitX=0;exitY=0.923;exitDx=0;exitDy=0;exitPerimeter=0;" parent="XuKHMtvTE8CdLiK7lEFD-1" edge="1">
          <mxGeometry x="0.004" relative="1" as="geometry">
            <mxPoint x="851.9939999999999" y="-65.00000000000011" as="targetPoint" />
            <mxPoint x="1194.01" y="-64.89399999999989" as="sourcePoint" />
            <mxPoint as="offset" />
          </mxGeometry>
        </mxCell>
        <mxCell id="XuKHMtvTE8CdLiK7lEFD-158" value="return" style="html=1;verticalAlign=bottom;endArrow=open;dashed=1;endSize=8;rounded=0;shadow=0;fontSize=12;fontColor=#000000;entryX=0.528;entryY=0.143;entryDx=0;entryDy=0;entryPerimeter=0;" parent="XuKHMtvTE8CdLiK7lEFD-1" edge="1">
          <mxGeometry x="0.004" relative="1" as="geometry">
            <mxPoint x="596.2539999999999" y="-64.00000000000011" as="targetPoint" />
            <mxPoint x="843.75" y="-64" as="sourcePoint" />
            <mxPoint as="offset" />
          </mxGeometry>
        </mxCell>
        <mxCell id="XuKHMtvTE8CdLiK7lEFD-159" value="" style="line;strokeWidth=1;fillColor=none;align=left;verticalAlign=middle;spacingTop=-1;spacingLeft=3;spacingRight=3;rotatable=0;labelPosition=right;points=[];portConstraint=eastwest;" parent="XuKHMtvTE8CdLiK7lEFD-1" vertex="1">
          <mxGeometry x="478" y="-124" width="762" height="8" as="geometry" />
        </mxCell>
        <mxCell id="XuKHMtvTE8CdLiK7lEFD-160" value="remainingTime(notFound)" style="edgeLabel;html=1;align=center;verticalAlign=middle;resizable=0;points=[];" parent="XuKHMtvTE8CdLiK7lEFD-1" vertex="1" connectable="0">
          <mxGeometry x="1020.0009090909089" y="-57" as="geometry">
            <mxPoint x="11" y="1" as="offset" />
          </mxGeometry>
        </mxCell>
        <mxCell id="XuKHMtvTE8CdLiK7lEFD-161" value="remainingTime(notFound)" style="edgeLabel;html=1;align=center;verticalAlign=middle;resizable=0;points=[];" parent="XuKHMtvTE8CdLiK7lEFD-1" vertex="1" connectable="0">
          <mxGeometry x="725.0009090909089" y="-39" as="geometry">
            <mxPoint x="-3" y="-15" as="offset" />
          </mxGeometry>
        </mxCell>
        <mxCell id="XuKHMtvTE8CdLiK7lEFD-162" value="&lt;font style=&quot;&quot;&gt;&lt;font style=&quot;&quot;&gt;&lt;font style=&quot;font-size: 10px;&quot;&gt;if IBAN &lt;/font&gt;&lt;font style=&quot;font-size: 10px;&quot;&gt;Status &lt;/font&gt;&lt;font style=&quot;&quot;&gt;&lt;span style=&quot;font-size: 10px;&quot;&gt;= &lt;/span&gt;&lt;span style=&quot;font-size: 11px;&quot;&gt;notFound&lt;/span&gt;&lt;/font&gt;&lt;/font&gt;&lt;/font&gt;" style="text;html=1;align=center;verticalAlign=middle;resizable=0;points=[];autosize=1;fillColor=#dae8fc;strokeColor=#6c8ebf;" parent="XuKHMtvTE8CdLiK7lEFD-1" vertex="1">
          <mxGeometry x="484" y="-110" width="144" height="28" as="geometry" />
        </mxCell>
        <mxCell id="XuKHMtvTE8CdLiK7lEFD-163" value="updateIban(AppId)" style="edgeLabel;html=1;align=center;verticalAlign=middle;resizable=0;points=[];" parent="XuKHMtvTE8CdLiK7lEFD-1" vertex="1" connectable="0">
          <mxGeometry x="1019.000909090909" y="-1155" as="geometry" />
        </mxCell>
        <mxCell id="XuKHMtvTE8CdLiK7lEFD-164" value="updateIban(AppId)" style="edgeLabel;html=1;align=center;verticalAlign=middle;resizable=0;points=[];" parent="XuKHMtvTE8CdLiK7lEFD-1" vertex="1" connectable="0">
          <mxGeometry x="1754.0009090909089" y="-1155" as="geometry" />
        </mxCell>
        <mxCell id="XuKHMtvTE8CdLiK7lEFD-165" value="return" style="html=1;verticalAlign=bottom;endArrow=open;dashed=1;endSize=8;rounded=0;shadow=0;fontSize=12;fontColor=#000000;entryX=0.528;entryY=0.143;entryDx=0;entryDy=0;entryPerimeter=0;exitX=0;exitY=0.923;exitDx=0;exitDy=0;exitPerimeter=0;" parent="XuKHMtvTE8CdLiK7lEFD-1" edge="1">
          <mxGeometry x="0.004" relative="1" as="geometry">
            <mxPoint x="851.9939999999999" y="19.999999999999886" as="targetPoint" />
            <mxPoint x="1194.01" y="20.10600000000011" as="sourcePoint" />
            <mxPoint as="offset" />
          </mxGeometry>
        </mxCell>
        <mxCell id="XuKHMtvTE8CdLiK7lEFD-166" value="return" style="html=1;verticalAlign=bottom;endArrow=open;dashed=1;endSize=8;rounded=0;shadow=0;fontSize=12;fontColor=#000000;entryX=0.528;entryY=0.143;entryDx=0;entryDy=0;entryPerimeter=0;" parent="XuKHMtvTE8CdLiK7lEFD-1" edge="1">
          <mxGeometry x="0.004" relative="1" as="geometry">
            <mxPoint x="596.2539999999999" y="20.999999999999886" as="targetPoint" />
            <mxPoint x="843.75" y="21" as="sourcePoint" />
            <mxPoint as="offset" />
          </mxGeometry>
        </mxCell>
        <mxCell id="XuKHMtvTE8CdLiK7lEFD-167" value="" style="line;strokeWidth=1;fillColor=none;align=left;verticalAlign=middle;spacingTop=-1;spacingLeft=3;spacingRight=3;rotatable=0;labelPosition=right;points=[];portConstraint=eastwest;" parent="XuKHMtvTE8CdLiK7lEFD-1" vertex="1">
          <mxGeometry x="478" y="-39" width="762" height="8" as="geometry" />
        </mxCell>
        <mxCell id="XuKHMtvTE8CdLiK7lEFD-168" value="IBAN, Bank, remainingTime(pending)" style="edgeLabel;html=1;align=center;verticalAlign=middle;resizable=0;points=[];" parent="XuKHMtvTE8CdLiK7lEFD-1" vertex="1" connectable="0">
          <mxGeometry x="725.0009090909089" y="-82" as="geometry">
            <mxPoint x="-2" y="-1" as="offset" />
          </mxGeometry>
        </mxCell>
        <mxCell id="XuKHMtvTE8CdLiK7lEFD-169" value="&lt;font style=&quot;&quot;&gt;&lt;font style=&quot;&quot;&gt;&lt;font style=&quot;font-size: 10px;&quot;&gt;if IBAN &lt;/font&gt;&lt;font style=&quot;font-size: 10px;&quot;&gt;Status &lt;/font&gt;&lt;font style=&quot;&quot;&gt;&lt;span style=&quot;font-size: 10px;&quot;&gt;= &lt;/span&gt;&lt;span style=&quot;font-size: 11px;&quot;&gt;pending&lt;/span&gt;&lt;/font&gt;&lt;/font&gt;&lt;/font&gt;" style="text;html=1;align=center;verticalAlign=middle;resizable=0;points=[];autosize=1;fillColor=#dae8fc;strokeColor=#6c8ebf;" parent="XuKHMtvTE8CdLiK7lEFD-1" vertex="1">
          <mxGeometry x="484" y="-24" width="136" height="28" as="geometry" />
        </mxCell>
        <mxCell id="XuKHMtvTE8CdLiK7lEFD-170" value="IBAN, Bank, remainingTime(pending)" style="edgeLabel;html=1;align=center;verticalAlign=middle;resizable=0;points=[];" parent="XuKHMtvTE8CdLiK7lEFD-1" vertex="1" connectable="0">
          <mxGeometry x="1026.0009090909089" y="-80" as="geometry">
            <mxPoint x="-2" y="-1" as="offset" />
          </mxGeometry>
        </mxCell>
        <mxCell id="6b_8kTnpNkQp_z-Yn5X7-0" value="" style="line;strokeWidth=1;fillColor=none;align=left;verticalAlign=middle;spacingTop=-1;spacingLeft=3;spacingRight=3;rotatable=0;labelPosition=right;points=[];portConstraint=eastwest;" vertex="1" parent="XuKHMtvTE8CdLiK7lEFD-1">
          <mxGeometry x="477" y="-506" width="763" height="8" as="geometry" />
        </mxCell>
        <mxCell id="6b_8kTnpNkQp_z-Yn5X7-1" value="return" style="html=1;verticalAlign=bottom;endArrow=open;dashed=1;endSize=8;rounded=0;shadow=0;fontSize=12;fontColor=#000000;entryX=0.528;entryY=0.143;entryDx=0;entryDy=0;entryPerimeter=0;exitX=0;exitY=0.923;exitDx=0;exitDy=0;exitPerimeter=0;" edge="1" parent="XuKHMtvTE8CdLiK7lEFD-1">
          <mxGeometry x="0.004" relative="1" as="geometry">
            <mxPoint x="850.9939999999999" y="-437.0000000000001" as="targetPoint" />
            <mxPoint x="1193.01" y="-436.8939999999999" as="sourcePoint" />
            <mxPoint as="offset" />
          </mxGeometry>
        </mxCell>
        <mxCell id="6b_8kTnpNkQp_z-Yn5X7-2" value="return" style="html=1;verticalAlign=bottom;endArrow=open;dashed=1;endSize=8;rounded=0;shadow=0;fontSize=12;fontColor=#000000;entryX=0.528;entryY=0.143;entryDx=0;entryDy=0;entryPerimeter=0;" edge="1" parent="XuKHMtvTE8CdLiK7lEFD-1">
          <mxGeometry x="0.004" relative="1" as="geometry">
            <mxPoint x="595.2539999999999" y="-438.0000000000001" as="targetPoint" />
            <mxPoint x="842.75" y="-438" as="sourcePoint" />
            <mxPoint as="offset" />
          </mxGeometry>
        </mxCell>
        <mxCell id="6b_8kTnpNkQp_z-Yn5X7-3" value="IBAN , Bank(SB-notVerified)" style="edgeLabel;html=1;align=center;verticalAlign=middle;resizable=0;points=[];" vertex="1" connectable="0" parent="XuKHMtvTE8CdLiK7lEFD-1">
          <mxGeometry x="720.000909090909" y="-430" as="geometry" />
        </mxCell>
        <mxCell id="6b_8kTnpNkQp_z-Yn5X7-4" value="IBAN , Bank(SB-notVerified)" style="edgeLabel;html=1;align=center;verticalAlign=middle;resizable=0;points=[];" vertex="1" connectable="0" parent="XuKHMtvTE8CdLiK7lEFD-1">
          <mxGeometry x="1016.000909090909" y="-429" as="geometry" />
        </mxCell>
        <mxCell id="6b_8kTnpNkQp_z-Yn5X7-5" value="&lt;font style=&quot;font-size: 11px;&quot;&gt;&lt;font style=&quot;&quot;&gt;if IBAN &lt;/font&gt;&lt;font style=&quot;&quot;&gt;Status &lt;/font&gt;&lt;font style=&quot;&quot;&gt;=&lt;/font&gt;&lt;/font&gt;&lt;font style=&quot;border-color: var(--border-color); font-size: 11px;&quot;&gt;&amp;nbsp;&lt;/font&gt;(has call same AppId) SB-notVerified" style="text;html=1;align=center;verticalAlign=middle;resizable=0;points=[];autosize=1;fillColor=#dae8fc;strokeColor=#6c8ebf;" vertex="1" parent="XuKHMtvTE8CdLiK7lEFD-1">
          <mxGeometry x="484" y="-488" width="300" height="28" as="geometry" />
        </mxCell>
        <mxCell id="6b_8kTnpNkQp_z-Yn5X7-6" value="" style="line;strokeWidth=1;fillColor=none;align=left;verticalAlign=middle;spacingTop=-1;spacingLeft=3;spacingRight=3;rotatable=0;labelPosition=right;points=[];portConstraint=eastwest;" vertex="1" parent="XuKHMtvTE8CdLiK7lEFD-1">
          <mxGeometry x="477" y="-383" width="763" height="8" as="geometry" />
        </mxCell>
        <mxCell id="6b_8kTnpNkQp_z-Yn5X7-7" value="&lt;font style=&quot;font-size: 11px;&quot;&gt;&lt;font style=&quot;&quot;&gt;if IBAN &lt;/font&gt;&lt;font style=&quot;&quot;&gt;Status &lt;/font&gt;&lt;font style=&quot;&quot;&gt;=&amp;nbsp;&lt;/font&gt;&lt;/font&gt;(has call same AppId)SB-verified" style="text;html=1;align=center;verticalAlign=middle;resizable=0;points=[];autosize=1;fillColor=#dae8fc;strokeColor=#6c8ebf;" vertex="1" parent="XuKHMtvTE8CdLiK7lEFD-1">
          <mxGeometry x="484" y="-608" width="276" height="28" as="geometry" />
        </mxCell>
        <mxCell id="6b_8kTnpNkQp_z-Yn5X7-8" value="return" style="html=1;verticalAlign=bottom;endArrow=open;dashed=1;endSize=8;rounded=0;shadow=0;fontSize=12;fontColor=#000000;entryX=0.528;entryY=0.143;entryDx=0;entryDy=0;entryPerimeter=0;exitX=0;exitY=0.923;exitDx=0;exitDy=0;exitPerimeter=0;" edge="1" parent="XuKHMtvTE8CdLiK7lEFD-1">
          <mxGeometry x="0.004" relative="1" as="geometry">
            <mxPoint x="849.9939999999999" y="-559.0000000000001" as="targetPoint" />
            <mxPoint x="1192.01" y="-558.8939999999999" as="sourcePoint" />
            <mxPoint as="offset" />
          </mxGeometry>
        </mxCell>
        <mxCell id="6b_8kTnpNkQp_z-Yn5X7-9" value="return" style="html=1;verticalAlign=bottom;endArrow=open;dashed=1;endSize=8;rounded=0;shadow=0;fontSize=12;fontColor=#000000;entryX=0.528;entryY=0.143;entryDx=0;entryDy=0;entryPerimeter=0;" edge="1" parent="XuKHMtvTE8CdLiK7lEFD-1">
          <mxGeometry x="0.004" relative="1" as="geometry">
            <mxPoint x="594.2539999999999" y="-560.0000000000001" as="targetPoint" />
            <mxPoint x="841.75" y="-560" as="sourcePoint" />
            <mxPoint as="offset" />
          </mxGeometry>
        </mxCell>
        <mxCell id="6b_8kTnpNkQp_z-Yn5X7-10" value="IBAN , Bank(SB-Verified)" style="edgeLabel;html=1;align=center;verticalAlign=middle;resizable=0;points=[];" vertex="1" connectable="0" parent="XuKHMtvTE8CdLiK7lEFD-1">
          <mxGeometry x="719.000909090909" y="-552" as="geometry" />
        </mxCell>
        <mxCell id="6b_8kTnpNkQp_z-Yn5X7-11" value="IBAN, Bank(SB-Verified)" style="edgeLabel;html=1;align=center;verticalAlign=middle;resizable=0;points=[];" vertex="1" connectable="0" parent="XuKHMtvTE8CdLiK7lEFD-1">
          <mxGeometry x="1015.000909090909" y="-549" as="geometry" />
        </mxCell>
        <mxCell id="6b_8kTnpNkQp_z-Yn5X7-12" value="Call updateIban" style="edgeStyle=orthogonalEdgeStyle;html=1;align=left;spacingLeft=2;endArrow=block;rounded=0;entryX=1;entryY=0;" edge="1" parent="XuKHMtvTE8CdLiK7lEFD-1">
          <mxGeometry x="-0.2593" y="11" relative="1" as="geometry">
            <mxPoint x="597.5" y="-537" as="sourcePoint" />
            <Array as="points">
              <mxPoint x="611.5" y="-537" />
              <mxPoint x="611.5" y="-517" />
            </Array>
            <mxPoint as="offset" />
            <mxPoint x="596.5" y="-517" as="targetPoint" />
          </mxGeometry>
        </mxCell>
        <mxCell id="6b_8kTnpNkQp_z-Yn5X7-13" value="Call updateIban" style="edgeStyle=orthogonalEdgeStyle;html=1;align=left;spacingLeft=2;endArrow=block;rounded=0;entryX=1;entryY=0;" edge="1" parent="XuKHMtvTE8CdLiK7lEFD-1">
          <mxGeometry x="-0.2593" y="11" relative="1" as="geometry">
            <mxPoint x="597.5" y="-415" as="sourcePoint" />
            <Array as="points">
              <mxPoint x="611.5" y="-415" />
              <mxPoint x="611.5" y="-395" />
            </Array>
            <mxPoint as="offset" />
            <mxPoint x="596.5" y="-395" as="targetPoint" />
          </mxGeometry>
        </mxCell>
      </root>
    </mxGraphModel>
  </diagram>
  <diagram name="Iban-Verification-updateIban" id="BQbIpRVKlNZA-JT8r-_t">
    <mxGraphModel dx="2575" dy="2398" grid="1" gridSize="4" guides="1" tooltips="1" connect="1" arrows="1" fold="1" page="1" pageScale="1" pageWidth="850" pageHeight="1100" math="0" shadow="0">
      <root>
        <mxCell id="ScA0WdmaVUyXN7xJSevH-0" />
        <mxCell id="ScA0WdmaVUyXN7xJSevH-1" parent="ScA0WdmaVUyXN7xJSevH-0" />
        <mxCell id="ScA0WdmaVUyXN7xJSevH-5" value="Disbursement MS(sarie)" style="shape=umlLifeline;perimeter=lifelinePerimeter;container=0;collapsible=0;recursiveResize=0;rounded=0;shadow=0;strokeWidth=1;" parent="ScA0WdmaVUyXN7xJSevH-1" vertex="1">
          <mxGeometry x="1132" y="-396" width="136" height="1196" as="geometry" />
        </mxCell>
        <mxCell id="ScA0WdmaVUyXN7xJSevH-6" value="" style="html=1;points=[];perimeter=orthogonalPerimeter;rounded=1;shadow=0;fontSize=12;strokeWidth=1;" parent="ScA0WdmaVUyXN7xJSevH-1" vertex="1">
          <mxGeometry x="1196" y="727" width="10" height="42" as="geometry" />
        </mxCell>
        <mxCell id="ScA0WdmaVUyXN7xJSevH-7" value="Loan Execution MS" style="shape=umlLifeline;perimeter=lifelinePerimeter;container=0;collapsible=0;recursiveResize=0;rounded=0;shadow=0;strokeWidth=1;" parent="ScA0WdmaVUyXN7xJSevH-1" vertex="1">
          <mxGeometry x="792" y="-396" width="115.5" height="1192" as="geometry" />
        </mxCell>
        <mxCell id="ScA0WdmaVUyXN7xJSevH-8" value="Emkan APP" style="shape=umlLifeline;perimeter=lifelinePerimeter;container=0;collapsible=0;recursiveResize=0;rounded=0;shadow=0;strokeWidth=1;" parent="ScA0WdmaVUyXN7xJSevH-1" vertex="1">
          <mxGeometry x="540" y="-400" width="103" height="1200" as="geometry" />
        </mxCell>
        <mxCell id="ScA0WdmaVUyXN7xJSevH-9" value="ARB" style="shape=umlLifeline;perimeter=lifelinePerimeter;container=0;collapsible=0;recursiveResize=0;rounded=0;shadow=0;strokeWidth=1;" parent="ScA0WdmaVUyXN7xJSevH-1" vertex="1">
          <mxGeometry x="1704" y="-400" width="100" height="1200" as="geometry" />
        </mxCell>
        <mxCell id="ScA0WdmaVUyXN7xJSevH-10" value="Customer" style="shape=umlLifeline;participant=umlActor;perimeter=lifelinePerimeter;whiteSpace=wrap;html=1;container=1;collapsible=0;recursiveResize=0;verticalAlign=top;spacingTop=36;outlineConnect=0;" parent="ScA0WdmaVUyXN7xJSevH-1" vertex="1">
          <mxGeometry x="320" y="-392" width="20" height="1184" as="geometry" />
        </mxCell>
        <mxCell id="ScA0WdmaVUyXN7xJSevH-11" value="IBAN Verification" style="shape=note;size=20;whiteSpace=wrap;html=1;rounded=1;shadow=0;fontSize=12;strokeWidth=1;" parent="ScA0WdmaVUyXN7xJSevH-1" vertex="1">
          <mxGeometry x="1160" y="-580" width="310" height="60" as="geometry" />
        </mxCell>
        <mxCell id="ScA0WdmaVUyXN7xJSevH-12" value="" style="html=1;points=[];perimeter=orthogonalPerimeter;rounded=1;shadow=0;fontSize=12;strokeWidth=1;" parent="ScA0WdmaVUyXN7xJSevH-1" vertex="1">
          <mxGeometry x="586.5" y="-308" width="10" height="1084" as="geometry" />
        </mxCell>
        <mxCell id="ScA0WdmaVUyXN7xJSevH-13" style="edgeStyle=orthogonalEdgeStyle;rounded=0;orthogonalLoop=1;jettySize=auto;html=1;entryX=0.25;entryY=0.024;entryDx=0;entryDy=0;entryPerimeter=0;" parent="ScA0WdmaVUyXN7xJSevH-1" edge="1">
          <mxGeometry relative="1" as="geometry">
            <mxPoint x="330" y="-217" as="sourcePoint" />
            <mxPoint x="589" y="-216.76800000000003" as="targetPoint" />
            <Array as="points" />
          </mxGeometry>
        </mxCell>
        <mxCell id="ScA0WdmaVUyXN7xJSevH-14" value="" style="html=1;points=[];perimeter=orthogonalPerimeter;rounded=1;shadow=0;fontSize=12;strokeWidth=1;" parent="ScA0WdmaVUyXN7xJSevH-1" vertex="1">
          <mxGeometry x="1752" y="626" width="10" height="35" as="geometry" />
        </mxCell>
        <mxCell id="ScA0WdmaVUyXN7xJSevH-15" value="submint IBAN" style="text;html=1;align=center;verticalAlign=middle;resizable=0;points=[];autosize=1;strokeColor=none;" parent="ScA0WdmaVUyXN7xJSevH-1" vertex="1">
          <mxGeometry x="398" y="-247" width="96" height="28" as="geometry" />
        </mxCell>
        <mxCell id="ScA0WdmaVUyXN7xJSevH-16" value="" style="endArrow=classic;html=1;rounded=0;exitX=0.1;exitY=0.136;exitDx=0;exitDy=0;exitPerimeter=0;" parent="ScA0WdmaVUyXN7xJSevH-1" source="ScA0WdmaVUyXN7xJSevH-24" edge="1">
          <mxGeometry width="50" height="50" relative="1" as="geometry">
            <mxPoint x="931" y="745.3199999999999" as="sourcePoint" />
            <mxPoint x="1205" y="729" as="targetPoint" />
          </mxGeometry>
        </mxCell>
        <mxCell id="ScA0WdmaVUyXN7xJSevH-17" value="return" style="html=1;verticalAlign=bottom;endArrow=open;dashed=1;endSize=8;rounded=0;shadow=0;fontSize=12;fontColor=#000000;entryX=0.4;entryY=0.977;entryDx=0;entryDy=0;entryPerimeter=0;" parent="ScA0WdmaVUyXN7xJSevH-1" target="ScA0WdmaVUyXN7xJSevH-24" edge="1">
          <mxGeometry relative="1" as="geometry">
            <mxPoint x="1165.5" y="755" as="targetPoint" />
            <mxPoint x="1209" y="765" as="sourcePoint" />
          </mxGeometry>
        </mxCell>
        <mxCell id="ScA0WdmaVUyXN7xJSevH-18" value="" style="html=1;points=[];perimeter=orthogonalPerimeter;rounded=1;shadow=0;fontSize=12;strokeWidth=1;" parent="ScA0WdmaVUyXN7xJSevH-1" vertex="1">
          <mxGeometry x="844.75" y="-220" width="10" height="924" as="geometry" />
        </mxCell>
        <mxCell id="ScA0WdmaVUyXN7xJSevH-19" style="edgeStyle=orthogonalEdgeStyle;rounded=0;orthogonalLoop=1;jettySize=auto;html=1;entryX=0.225;entryY=0.137;entryDx=0;entryDy=0;entryPerimeter=0;" parent="ScA0WdmaVUyXN7xJSevH-1" edge="1">
          <mxGeometry relative="1" as="geometry">
            <mxPoint x="596" y="-219" as="sourcePoint" />
            <mxPoint x="847" y="-219.01299999999992" as="targetPoint" />
            <Array as="points">
              <mxPoint x="628" y="-219" />
            </Array>
          </mxGeometry>
        </mxCell>
        <mxCell id="ScA0WdmaVUyXN7xJSevH-20" value="" style="endArrow=classic;html=1;rounded=0;entryX=0.2;entryY=0.077;entryDx=0;entryDy=0;entryPerimeter=0;" parent="ScA0WdmaVUyXN7xJSevH-1" edge="1">
          <mxGeometry width="50" height="50" relative="1" as="geometry">
            <mxPoint x="857" y="-162" as="sourcePoint" />
            <mxPoint x="1196" y="-161.99599999999964" as="targetPoint" />
          </mxGeometry>
        </mxCell>
        <mxCell id="ScA0WdmaVUyXN7xJSevH-21" value="return" style="html=1;verticalAlign=bottom;endArrow=open;dashed=1;endSize=8;rounded=0;shadow=0;fontSize=12;fontColor=#000000;entryX=0.528;entryY=0.143;entryDx=0;entryDy=0;entryPerimeter=0;exitX=0;exitY=0.923;exitDx=0;exitDy=0;exitPerimeter=0;" parent="ScA0WdmaVUyXN7xJSevH-1" edge="1">
          <mxGeometry x="0.004" relative="1" as="geometry">
            <mxPoint x="854.7539999999999" y="115.99999999999989" as="targetPoint" />
            <mxPoint x="1196.77" y="116.10600000000011" as="sourcePoint" />
            <mxPoint as="offset" />
          </mxGeometry>
        </mxCell>
        <mxCell id="ScA0WdmaVUyXN7xJSevH-22" value="return" style="html=1;verticalAlign=bottom;endArrow=open;dashed=1;endSize=8;rounded=0;shadow=0;fontSize=12;fontColor=#000000;" parent="ScA0WdmaVUyXN7xJSevH-1" edge="1">
          <mxGeometry x="0.004" relative="1" as="geometry">
            <mxPoint x="596" y="527" as="targetPoint" />
            <mxPoint x="842" y="527" as="sourcePoint" />
            <mxPoint as="offset" />
          </mxGeometry>
        </mxCell>
        <mxCell id="ScA0WdmaVUyXN7xJSevH-23" value="Kastle" style="shape=umlLifeline;perimeter=lifelinePerimeter;container=0;collapsible=0;recursiveResize=0;rounded=0;shadow=0;strokeWidth=1;" parent="ScA0WdmaVUyXN7xJSevH-1" vertex="1">
          <mxGeometry x="2000" y="-400" width="112" height="1204" as="geometry" />
        </mxCell>
        <mxCell id="ScA0WdmaVUyXN7xJSevH-24" value="" style="html=1;points=[];perimeter=orthogonalPerimeter;rounded=1;shadow=0;fontSize=12;strokeWidth=1;" parent="ScA0WdmaVUyXN7xJSevH-1" vertex="1">
          <mxGeometry x="1750" y="722" width="10" height="44" as="geometry" />
        </mxCell>
        <mxCell id="ScA0WdmaVUyXN7xJSevH-25" value="/VerifyIban" style="text;html=1;align=center;verticalAlign=middle;resizable=0;points=[];autosize=1;strokeColor=none;" parent="ScA0WdmaVUyXN7xJSevH-1" vertex="1">
          <mxGeometry x="985" y="-191" width="80" height="28" as="geometry" />
        </mxCell>
        <mxCell id="ScA0WdmaVUyXN7xJSevH-26" value="/updateIban" style="text;html=1;align=center;verticalAlign=middle;resizable=0;points=[];autosize=1;strokeColor=none;" parent="ScA0WdmaVUyXN7xJSevH-1" vertex="1">
          <mxGeometry x="685" y="-246" width="84" height="28" as="geometry" />
        </mxCell>
        <mxCell id="ScA0WdmaVUyXN7xJSevH-27" value="/VerifyIban" style="text;html=1;align=center;verticalAlign=middle;resizable=0;points=[];autosize=1;strokeColor=none;" parent="ScA0WdmaVUyXN7xJSevH-1" vertex="1">
          <mxGeometry x="1260" y="602" width="80" height="28" as="geometry" />
        </mxCell>
        <mxCell id="ScA0WdmaVUyXN7xJSevH-28" value="" style="html=1;points=[];perimeter=orthogonalPerimeter;rounded=1;shadow=0;fontSize=12;strokeWidth=1;" parent="ScA0WdmaVUyXN7xJSevH-1" vertex="1">
          <mxGeometry x="1195" y="-180" width="10" height="304" as="geometry" />
        </mxCell>
        <mxCell id="ScA0WdmaVUyXN7xJSevH-29" value="" style="endArrow=classic;html=1;rounded=0;entryX=0.4;entryY=0.058;entryDx=0;entryDy=0;entryPerimeter=0;exitX=0.539;exitY=0.82;exitDx=0;exitDy=0;exitPerimeter=0;" parent="ScA0WdmaVUyXN7xJSevH-1" target="ScA0WdmaVUyXN7xJSevH-14" edge="1">
          <mxGeometry width="50" height="50" relative="1" as="geometry">
            <mxPoint x="854.2545" y="630.44" as="sourcePoint" />
            <mxPoint x="1550" y="613" as="targetPoint" />
          </mxGeometry>
        </mxCell>
        <mxCell id="ScA0WdmaVUyXN7xJSevH-30" value="return" style="html=1;verticalAlign=bottom;endArrow=open;dashed=1;endSize=8;rounded=0;shadow=0;fontSize=12;fontColor=#000000;entryX=0.548;entryY=0.843;entryDx=0;entryDy=0;entryPerimeter=0;" parent="ScA0WdmaVUyXN7xJSevH-1" edge="1">
          <mxGeometry x="0.004" relative="1" as="geometry">
            <mxPoint x="855.2939999999999" y="657.8559999999998" as="targetPoint" />
            <mxPoint x="1760" y="656" as="sourcePoint" />
            <mxPoint as="offset" />
          </mxGeometry>
        </mxCell>
        <mxCell id="ScA0WdmaVUyXN7xJSevH-31" value="&lt;span style=&quot;color: rgb(0, 0, 0); font-family: Helvetica; font-size: 12px; font-style: normal; font-variant-ligatures: normal; font-variant-caps: normal; font-weight: 400; letter-spacing: normal; orphans: 2; text-align: center; text-indent: 0px; text-transform: none; widows: 2; word-spacing: 0px; -webkit-text-stroke-width: 0px; background-color: rgb(251, 251, 251); text-decoration-thickness: initial; text-decoration-style: initial; text-decoration-color: initial; float: none; display: inline !important;&quot;&gt;/VerifyIbanCallback&lt;/span&gt;" style="text;whiteSpace=wrap;html=1;" parent="ScA0WdmaVUyXN7xJSevH-1" vertex="1">
          <mxGeometry x="1425" y="702" width="84" height="32" as="geometry" />
        </mxCell>
        <mxCell id="ScA0WdmaVUyXN7xJSevH-32" value="Dashboard MS" style="shape=umlLifeline;perimeter=lifelinePerimeter;container=0;collapsible=0;recursiveResize=0;rounded=0;shadow=0;strokeWidth=1;" parent="ScA0WdmaVUyXN7xJSevH-1" vertex="1">
          <mxGeometry x="1416" y="-400" width="112" height="1200" as="geometry" />
        </mxCell>
        <mxCell id="ScA0WdmaVUyXN7xJSevH-33" value="DMS MS" style="shape=umlLifeline;perimeter=lifelinePerimeter;container=0;collapsible=0;recursiveResize=0;rounded=0;shadow=0;strokeWidth=1;" parent="ScA0WdmaVUyXN7xJSevH-1" vertex="1">
          <mxGeometry x="2247" y="-400" width="112" height="1204" as="geometry" />
        </mxCell>
        <mxCell id="ScA0WdmaVUyXN7xJSevH-34" value="&lt;span style=&quot;font-size: 11px;&quot;&gt;if non ARB And not NL&lt;br&gt;&lt;/span&gt;" style="text;html=1;align=center;verticalAlign=middle;resizable=0;points=[];autosize=1;fillColor=#e1d5e7;strokeColor=#9673a6;" parent="ScA0WdmaVUyXN7xJSevH-1" vertex="1">
          <mxGeometry x="324" y="-148" width="132" height="28" as="geometry" />
        </mxCell>
        <mxCell id="ScA0WdmaVUyXN7xJSevH-35" value="" style="line;strokeWidth=1;fillColor=none;align=left;verticalAlign=middle;spacingTop=-1;spacingLeft=3;spacingRight=3;rotatable=0;labelPosition=right;points=[];portConstraint=eastwest;" parent="ScA0WdmaVUyXN7xJSevH-1" vertex="1">
          <mxGeometry x="528" y="469" width="1592" height="8" as="geometry" />
        </mxCell>
        <mxCell id="ScA0WdmaVUyXN7xJSevH-57" value="Lookup MS" style="shape=umlLifeline;perimeter=lifelinePerimeter;container=0;collapsible=0;recursiveResize=0;rounded=0;shadow=0;strokeWidth=1;" parent="ScA0WdmaVUyXN7xJSevH-1" vertex="1">
          <mxGeometry x="2431" y="-404" width="112" height="1204" as="geometry" />
        </mxCell>
        <mxCell id="ScA0WdmaVUyXN7xJSevH-59" value="return" style="html=1;verticalAlign=bottom;endArrow=open;dashed=1;endSize=8;rounded=0;shadow=0;fontSize=12;fontColor=#000000;entryX=0.528;entryY=0.143;entryDx=0;entryDy=0;entryPerimeter=0;" parent="ScA0WdmaVUyXN7xJSevH-1" edge="1">
          <mxGeometry x="0.004" relative="1" as="geometry">
            <mxPoint x="598.2539999999999" y="277.9999999999999" as="targetPoint" />
            <mxPoint x="845.75" y="278" as="sourcePoint" />
            <mxPoint as="offset" />
          </mxGeometry>
        </mxCell>
        <mxCell id="ScA0WdmaVUyXN7xJSevH-60" value="(notVerified)" style="edgeLabel;html=1;align=center;verticalAlign=middle;resizable=0;points=[];" parent="ScA0WdmaVUyXN7xJSevH-1" vertex="1" connectable="0">
          <mxGeometry x="724.000909090909" y="287" as="geometry">
            <mxPoint x="-4" y="-2" as="offset" />
          </mxGeometry>
        </mxCell>
        <mxCell id="ScA0WdmaVUyXN7xJSevH-61" value="(notVerified)" style="edgeLabel;html=1;align=center;verticalAlign=middle;resizable=0;points=[];" parent="ScA0WdmaVUyXN7xJSevH-1" vertex="1" connectable="0">
          <mxGeometry x="1442.0009090909089" y="277" as="geometry" />
        </mxCell>
        <mxCell id="ScA0WdmaVUyXN7xJSevH-62" value="Check Bank &lt;br&gt;Code" style="shape=umlFrame;whiteSpace=wrap;html=1;width=108;height=36;fillColor=#bac8d3;strokeColor=#23445d;" parent="ScA0WdmaVUyXN7xJSevH-1" vertex="1">
          <mxGeometry x="528" y="-76" width="1572" height="139" as="geometry" />
        </mxCell>
        <mxCell id="ScA0WdmaVUyXN7xJSevH-65" value="&lt;font style=&quot;font-size: 11px;&quot;&gt;&lt;font style=&quot;&quot;&gt;if IBAN &lt;/font&gt;&lt;font style=&quot;&quot;&gt;Status &lt;/font&gt;&lt;font style=&quot;&quot;&gt;=&amp;nbsp;&lt;/font&gt;&lt;/font&gt;(((has call same AppId and IBAN) Not active) or ((has call same AppId and IBAN)not match&amp;nbsp;) or&lt;font style=&quot;border-color: var(--border-color); font-size: 10px;&quot;&gt;&amp;nbsp;&lt;/font&gt;&lt;font style=&quot;border-color: var(--border-color); font-size: 11px;&quot;&gt;(&lt;/font&gt;numOfTrials &amp;gt;=3))" style="text;html=1;align=center;verticalAlign=middle;resizable=0;points=[];autosize=1;fillColor=#b0e3e6;strokeColor=#0e8088;" parent="ScA0WdmaVUyXN7xJSevH-1" vertex="1">
          <mxGeometry x="552" y="185" width="712" height="28" as="geometry" />
        </mxCell>
        <mxCell id="ScA0WdmaVUyXN7xJSevH-66" value="&lt;font style=&quot;border-color: var(--border-color); font-size: 11px;&quot;&gt;&lt;font style=&quot;border-color: var(--border-color);&quot;&gt;if IBAN&amp;nbsp;&lt;/font&gt;&lt;font style=&quot;border-color: var(--border-color);&quot;&gt;Status&amp;nbsp;&lt;/font&gt;&lt;font style=&quot;border-color: var(--border-color);&quot;&gt;=&amp;nbsp;&lt;/font&gt;&lt;/font&gt;((has call same AppId) active and match&amp;nbsp;)" style="text;html=1;align=center;verticalAlign=middle;resizable=0;points=[];autosize=1;fillColor=#b0e3e6;strokeColor=#0e8088;" parent="ScA0WdmaVUyXN7xJSevH-1" vertex="1">
          <mxGeometry x="540" y="337" width="324" height="28" as="geometry" />
        </mxCell>
        <mxCell id="ScA0WdmaVUyXN7xJSevH-67" value="" style="endArrow=classic;html=1;rounded=0;entryX=0.625;entryY=0.034;entryDx=0;entryDy=0;entryPerimeter=0;" parent="ScA0WdmaVUyXN7xJSevH-1" edge="1">
          <mxGeometry width="50" height="50" relative="1" as="geometry">
            <mxPoint x="1208" y="-127" as="sourcePoint" />
            <mxPoint x="2488.25" y="-127.26600000000008" as="targetPoint" />
          </mxGeometry>
        </mxCell>
        <mxCell id="ScA0WdmaVUyXN7xJSevH-68" value="/getBankLookup" style="text;html=1;align=center;verticalAlign=middle;resizable=0;points=[];autosize=1;strokeColor=none;" parent="ScA0WdmaVUyXN7xJSevH-1" vertex="1">
          <mxGeometry x="1792" y="-155" width="108" height="28" as="geometry" />
        </mxCell>
        <mxCell id="ScA0WdmaVUyXN7xJSevH-69" value="return" style="html=1;verticalAlign=bottom;endArrow=open;dashed=1;endSize=8;rounded=0;shadow=0;fontSize=12;fontColor=#000000;exitX=0.478;exitY=0.317;exitDx=0;exitDy=0;exitPerimeter=0;" parent="ScA0WdmaVUyXN7xJSevH-1" edge="1">
          <mxGeometry x="0.004" relative="1" as="geometry">
            <mxPoint x="1208" y="-85" as="targetPoint" />
            <mxPoint x="2487.536" y="-83.82499999999982" as="sourcePoint" />
            <mxPoint as="offset" />
          </mxGeometry>
        </mxCell>
        <mxCell id="ScA0WdmaVUyXN7xJSevH-70" value="" style="html=1;points=[];perimeter=orthogonalPerimeter;rounded=1;shadow=0;fontSize=12;strokeWidth=1;arcSize=50;" parent="ScA0WdmaVUyXN7xJSevH-1" vertex="1">
          <mxGeometry x="2482" y="-134" width="10" height="51" as="geometry" />
        </mxCell>
        <mxCell id="ScA0WdmaVUyXN7xJSevH-71" value="&lt;font style=&quot;font-size: 11px;&quot;&gt;&lt;font style=&quot;&quot;&gt;if Bank Code&amp;nbsp;&lt;/font&gt;&lt;font style=&quot;&quot;&gt;= notSupported from ARB&lt;/font&gt;&lt;/font&gt;" style="text;html=1;align=center;verticalAlign=middle;resizable=0;points=[];autosize=1;fillColor=#bac8d3;strokeColor=#23445d;" parent="ScA0WdmaVUyXN7xJSevH-1" vertex="1">
          <mxGeometry x="648" y="-68" width="216" height="28" as="geometry" />
        </mxCell>
        <mxCell id="ScA0WdmaVUyXN7xJSevH-73" value="return" style="html=1;verticalAlign=bottom;endArrow=open;dashed=1;endSize=8;rounded=0;shadow=0;fontSize=12;fontColor=#000000;entryX=0.528;entryY=0.143;entryDx=0;entryDy=0;entryPerimeter=0;" parent="ScA0WdmaVUyXN7xJSevH-1" edge="1">
          <mxGeometry x="0.004" relative="1" as="geometry">
            <mxPoint x="596.2539999999999" y="3.9999999999998863" as="targetPoint" />
            <mxPoint x="843.75" y="4" as="sourcePoint" />
            <mxPoint as="offset" />
          </mxGeometry>
        </mxCell>
        <mxCell id="ScA0WdmaVUyXN7xJSevH-74" value="(notVerified)" style="edgeLabel;html=1;align=center;verticalAlign=middle;resizable=0;points=[];" parent="ScA0WdmaVUyXN7xJSevH-1" vertex="1" connectable="0">
          <mxGeometry x="1456.0009090909089" y="11" as="geometry" />
        </mxCell>
        <mxCell id="ScA0WdmaVUyXN7xJSevH-122" value="(notVerified)" style="edgeLabel;html=1;align=center;verticalAlign=middle;resizable=0;points=[];" parent="ScA0WdmaVUyXN7xJSevH-1" vertex="1" connectable="0">
          <mxGeometry x="1017.0009090909089" y="11" as="geometry">
            <mxPoint x="-298" y="-1" as="offset" />
          </mxGeometry>
        </mxCell>
        <mxCell id="ScA0WdmaVUyXN7xJSevH-123" value="" style="line;strokeWidth=1;fillColor=none;align=left;verticalAlign=middle;spacingTop=-1;spacingLeft=3;spacingRight=3;rotatable=0;labelPosition=right;points=[];portConstraint=eastwest;" parent="ScA0WdmaVUyXN7xJSevH-1" vertex="1">
          <mxGeometry x="528" y="329" width="1588" height="8" as="geometry" />
        </mxCell>
        <mxCell id="ScA0WdmaVUyXN7xJSevH-125" value="return" style="html=1;verticalAlign=bottom;endArrow=open;dashed=1;endSize=8;rounded=0;shadow=0;fontSize=12;fontColor=#000000;entryX=0.528;entryY=0.143;entryDx=0;entryDy=0;entryPerimeter=0;" parent="ScA0WdmaVUyXN7xJSevH-1" edge="1">
          <mxGeometry x="0.004" relative="1" as="geometry">
            <mxPoint x="597.2539999999999" y="403.9999999999999" as="targetPoint" />
            <mxPoint x="844.75" y="404" as="sourcePoint" />
            <mxPoint as="offset" />
          </mxGeometry>
        </mxCell>
        <mxCell id="ScA0WdmaVUyXN7xJSevH-126" value="IBAN, Bank, remainingTime(pending)" style="edgeLabel;html=1;align=center;verticalAlign=middle;resizable=0;points=[];" parent="ScA0WdmaVUyXN7xJSevH-1" vertex="1" connectable="0">
          <mxGeometry x="724.0009090909089" y="542" as="geometry">
            <mxPoint x="10" y="-5" as="offset" />
          </mxGeometry>
        </mxCell>
        <mxCell id="ScA0WdmaVUyXN7xJSevH-127" value="&lt;font style=&quot;&quot;&gt;&lt;font style=&quot;&quot;&gt;&lt;font style=&quot;font-size: 10px;&quot;&gt;if IBAN &lt;/font&gt;&lt;font style=&quot;font-size: 10px;&quot;&gt;Status &lt;/font&gt;&lt;font style=&quot;&quot;&gt;&lt;span style=&quot;font-size: 10px;&quot;&gt;= &lt;/span&gt;&lt;span style=&quot;font-size: 11px;&quot;&gt;pending&lt;/span&gt;&lt;/font&gt;&lt;/font&gt;&lt;/font&gt;" style="text;html=1;align=center;verticalAlign=middle;resizable=0;points=[];autosize=1;fillColor=#b0e3e6;strokeColor=#0e8088;gradientColor=none;" parent="ScA0WdmaVUyXN7xJSevH-1" vertex="1">
          <mxGeometry x="540" y="485" width="136" height="28" as="geometry" />
        </mxCell>
        <mxCell id="ScA0WdmaVUyXN7xJSevH-129" value="" style="endArrow=classic;html=1;rounded=0;entryX=0.2;entryY=0.045;entryDx=0;entryDy=0;entryPerimeter=0;exitX=0.206;exitY=0.28;exitDx=0;exitDy=0;exitPerimeter=0;" parent="ScA0WdmaVUyXN7xJSevH-1" source="ScA0WdmaVUyXN7xJSevH-62" target="ScA0WdmaVUyXN7xJSevH-130" edge="1">
          <mxGeometry width="50" height="50" relative="1" as="geometry">
            <mxPoint x="1207.328" y="-35.01999999999998" as="sourcePoint" />
            <mxPoint x="1868" y="-36" as="targetPoint" />
          </mxGeometry>
        </mxCell>
        <mxCell id="ScA0WdmaVUyXN7xJSevH-130" value="" style="html=1;points=[];perimeter=orthogonalPerimeter;rounded=1;shadow=0;fontSize=12;strokeWidth=1;" parent="ScA0WdmaVUyXN7xJSevH-1" vertex="1">
          <mxGeometry x="2051" y="-39" width="10" height="44" as="geometry" />
        </mxCell>
        <mxCell id="ScA0WdmaVUyXN7xJSevH-131" value="/updateIban(isVerified=false)" style="text;html=1;align=center;verticalAlign=middle;resizable=0;points=[];autosize=1;strokeColor=none;" parent="ScA0WdmaVUyXN7xJSevH-1" vertex="1">
          <mxGeometry x="1379" y="-67" width="176" height="28" as="geometry" />
        </mxCell>
        <mxCell id="ScA0WdmaVUyXN7xJSevH-132" value="return" style="html=1;verticalAlign=bottom;endArrow=open;dashed=1;endSize=8;rounded=0;shadow=0;fontSize=12;fontColor=#000000;entryX=0.209;entryY=0.554;entryDx=0;entryDy=0;entryPerimeter=0;" parent="ScA0WdmaVUyXN7xJSevH-1" source="ScA0WdmaVUyXN7xJSevH-130" target="ScA0WdmaVUyXN7xJSevH-62" edge="1">
          <mxGeometry x="0.004" relative="1" as="geometry">
            <mxPoint x="1204" y="1" as="targetPoint" />
            <mxPoint x="1858.0000000000005" y="2.0000000000002274" as="sourcePoint" />
            <mxPoint as="offset" />
          </mxGeometry>
        </mxCell>
        <mxCell id="ScA0WdmaVUyXN7xJSevH-133" value="" style="endArrow=classic;html=1;rounded=0;entryX=0.2;entryY=0.045;entryDx=0;entryDy=0;entryPerimeter=0;" parent="ScA0WdmaVUyXN7xJSevH-1" target="ScA0WdmaVUyXN7xJSevH-134" edge="1">
          <mxGeometry width="50" height="50" relative="1" as="geometry">
            <mxPoint x="854.75" y="220.15999999999985" as="sourcePoint" />
            <mxPoint x="1866" y="221" as="targetPoint" />
          </mxGeometry>
        </mxCell>
        <mxCell id="ScA0WdmaVUyXN7xJSevH-134" value="" style="html=1;points=[];perimeter=orthogonalPerimeter;rounded=1;shadow=0;fontSize=12;strokeWidth=1;" parent="ScA0WdmaVUyXN7xJSevH-1" vertex="1">
          <mxGeometry x="2049" y="218" width="10" height="48" as="geometry" />
        </mxCell>
        <mxCell id="ScA0WdmaVUyXN7xJSevH-135" value="/updateIban(isVerified=false)" style="text;html=1;align=center;verticalAlign=middle;resizable=0;points=[];autosize=1;strokeColor=none;" parent="ScA0WdmaVUyXN7xJSevH-1" vertex="1">
          <mxGeometry x="1358" y="197" width="176" height="28" as="geometry" />
        </mxCell>
        <mxCell id="ScA0WdmaVUyXN7xJSevH-136" value="return" style="html=1;verticalAlign=bottom;endArrow=open;dashed=1;endSize=8;rounded=0;shadow=0;fontSize=12;fontColor=#000000;entryX=0.192;entryY=0.521;entryDx=0;entryDy=0;entryPerimeter=0;" parent="ScA0WdmaVUyXN7xJSevH-1" edge="1">
          <mxGeometry x="0.004" relative="1" as="geometry">
            <mxPoint x="846.6700000000001" y="266.6400000000003" as="targetPoint" />
            <mxPoint x="2049.0000000000005" y="264.99999999999955" as="sourcePoint" />
            <mxPoint as="offset" />
          </mxGeometry>
        </mxCell>
        <mxCell id="ScA0WdmaVUyXN7xJSevH-138" value="return" style="html=1;verticalAlign=bottom;endArrow=open;dashed=1;endSize=8;rounded=0;shadow=0;fontSize=12;fontColor=#000000;" parent="ScA0WdmaVUyXN7xJSevH-1" edge="1">
          <mxGeometry x="0.004" relative="1" as="geometry">
            <mxPoint x="596" y="670" as="targetPoint" />
            <mxPoint x="842" y="670" as="sourcePoint" />
            <mxPoint as="offset" />
          </mxGeometry>
        </mxCell>
        <mxCell id="ScA0WdmaVUyXN7xJSevH-139" value="" style="line;strokeWidth=1;fillColor=none;align=left;verticalAlign=middle;spacingTop=-1;spacingLeft=3;spacingRight=3;rotatable=0;labelPosition=right;points=[];portConstraint=eastwest;" parent="ScA0WdmaVUyXN7xJSevH-1" vertex="1">
          <mxGeometry x="528" y="564" width="1588" height="8" as="geometry" />
        </mxCell>
        <mxCell id="ScA0WdmaVUyXN7xJSevH-140" value="&lt;font style=&quot;border-color: var(--border-color); font-size: 10px;&quot;&gt;&lt;font style=&quot;border-color: var(--border-color);&quot;&gt;&lt;font style=&quot;border-color: var(--border-color);&quot;&gt;&amp;nbsp;if IBAN&amp;nbsp;&lt;/font&gt;&lt;font style=&quot;border-color: var(--border-color);&quot;&gt;Status&amp;nbsp;&lt;/font&gt;&lt;font style=&quot;border-color: var(--border-color);&quot;&gt;=&amp;nbsp;notFound OR&amp;nbsp;&lt;/font&gt;&lt;/font&gt;&lt;/font&gt;&lt;font style=&quot;border-color: var(--border-color); font-size: 11px;&quot;&gt;(&lt;/font&gt;timedout and numOfTrials &amp;lt;3) OR&amp;nbsp;&lt;font style=&quot;border-color: var(--border-color); font-size: 11px;&quot;&gt;(&lt;/font&gt;Not match and numOfTrials =&amp;lt;3) OR&amp;nbsp;&lt;font style=&quot;border-color: var(--border-color); font-size: 11px;&quot;&gt;(&lt;/font&gt;Not active and numOfTrials &amp;lt;3)" style="text;html=1;align=center;verticalAlign=middle;resizable=0;points=[];autosize=1;fillColor=#b0e3e6;strokeColor=#0e8088;" parent="ScA0WdmaVUyXN7xJSevH-1" vertex="1">
          <mxGeometry x="540" y="585" width="720" height="28" as="geometry" />
        </mxCell>
        <mxCell id="ScA0WdmaVUyXN7xJSevH-141" value="" style="html=1;points=[];perimeter=orthogonalPerimeter;rounded=1;shadow=0;fontSize=12;strokeWidth=1;" parent="ScA0WdmaVUyXN7xJSevH-1" vertex="1">
          <mxGeometry x="2051" y="365" width="10" height="37" as="geometry" />
        </mxCell>
        <mxCell id="ScA0WdmaVUyXN7xJSevH-142" value="Go to upload Iban screen" style="edgeStyle=orthogonalEdgeStyle;html=1;align=left;spacingLeft=2;endArrow=block;rounded=0;entryX=1;entryY=0;" parent="ScA0WdmaVUyXN7xJSevH-1" edge="1">
          <mxGeometry x="-0.2593" y="11" relative="1" as="geometry">
            <mxPoint x="596.5" y="33" as="sourcePoint" />
            <Array as="points">
              <mxPoint x="610.5" y="33" />
              <mxPoint x="610.5" y="53" />
            </Array>
            <mxPoint as="offset" />
            <mxPoint x="595.5" y="53" as="targetPoint" />
          </mxGeometry>
        </mxCell>
        <mxCell id="ScA0WdmaVUyXN7xJSevH-143" value="Go to upload Iban screen" style="edgeStyle=orthogonalEdgeStyle;html=1;align=left;spacingLeft=2;endArrow=block;rounded=0;entryX=1;entryY=0;" parent="ScA0WdmaVUyXN7xJSevH-1" edge="1">
          <mxGeometry x="-0.2593" y="11" relative="1" as="geometry">
            <mxPoint x="598.5" y="300" as="sourcePoint" />
            <Array as="points">
              <mxPoint x="612.5" y="300" />
              <mxPoint x="612.5" y="320" />
            </Array>
            <mxPoint as="offset" />
            <mxPoint x="597.5" y="320" as="targetPoint" />
          </mxGeometry>
        </mxCell>
        <mxCell id="ScA0WdmaVUyXN7xJSevH-144" value="" style="endArrow=classic;html=1;rounded=0;entryX=0.2;entryY=0.045;entryDx=0;entryDy=0;entryPerimeter=0;exitX=0.539;exitY=0.602;exitDx=0;exitDy=0;exitPerimeter=0;" parent="ScA0WdmaVUyXN7xJSevH-1" edge="1">
          <mxGeometry width="50" height="50" relative="1" as="geometry">
            <mxPoint x="854.2545" y="370.5840000000003" as="sourcePoint" />
            <mxPoint x="2053" y="368.66499999999996" as="targetPoint" />
          </mxGeometry>
        </mxCell>
        <mxCell id="ScA0WdmaVUyXN7xJSevH-145" value="/updateIban(isVerified=true)" style="text;html=1;align=center;verticalAlign=middle;resizable=0;points=[];autosize=1;strokeColor=none;" parent="ScA0WdmaVUyXN7xJSevH-1" vertex="1">
          <mxGeometry x="1383" y="345" width="172" height="28" as="geometry" />
        </mxCell>
        <mxCell id="ScA0WdmaVUyXN7xJSevH-146" value="return" style="html=1;verticalAlign=bottom;endArrow=open;dashed=1;endSize=8;rounded=0;shadow=0;fontSize=12;fontColor=#000000;" parent="ScA0WdmaVUyXN7xJSevH-1" edge="1">
          <mxGeometry x="0.004" relative="1" as="geometry">
            <mxPoint x="848.0277777777774" y="402.99999999999955" as="targetPoint" />
            <mxPoint x="2051.0000000000005" y="402.99999999999955" as="sourcePoint" />
            <mxPoint as="offset" />
          </mxGeometry>
        </mxCell>
        <mxCell id="ScA0WdmaVUyXN7xJSevH-147" value="(verified)" style="edgeLabel;html=1;align=center;verticalAlign=middle;resizable=0;points=[];" parent="ScA0WdmaVUyXN7xJSevH-1" vertex="1" connectable="0">
          <mxGeometry x="1015.0009090909089" y="416" as="geometry">
            <mxPoint x="-298" y="-1" as="offset" />
          </mxGeometry>
        </mxCell>
        <mxCell id="ScA0WdmaVUyXN7xJSevH-148" value="(verified)" style="edgeLabel;html=1;align=center;verticalAlign=middle;resizable=0;points=[];" parent="ScA0WdmaVUyXN7xJSevH-1" vertex="1" connectable="0">
          <mxGeometry x="1750.0009090909089" y="416" as="geometry">
            <mxPoint x="-298" y="-1" as="offset" />
          </mxGeometry>
        </mxCell>
        <mxCell id="ScA0WdmaVUyXN7xJSevH-149" value="Go to purchase commodity otp screen" style="edgeStyle=orthogonalEdgeStyle;html=1;align=left;spacingLeft=2;endArrow=block;rounded=0;entryX=1;entryY=0;" parent="ScA0WdmaVUyXN7xJSevH-1" edge="1">
          <mxGeometry x="-0.2593" y="11" relative="1" as="geometry">
            <mxPoint x="597.5" y="436" as="sourcePoint" />
            <Array as="points">
              <mxPoint x="611.5" y="436" />
              <mxPoint x="611.5" y="456" />
            </Array>
            <mxPoint as="offset" />
            <mxPoint x="596.5" y="456" as="targetPoint" />
          </mxGeometry>
        </mxCell>
        <mxCell id="ScA0WdmaVUyXN7xJSevH-150" value="IBAN, Bank, remainingTime(pending)" style="edgeLabel;html=1;align=center;verticalAlign=middle;resizable=0;points=[];" parent="ScA0WdmaVUyXN7xJSevH-1" vertex="1" connectable="0">
          <mxGeometry x="708.0009090909089" y="692" as="geometry">
            <mxPoint x="12" y="-9" as="offset" />
          </mxGeometry>
        </mxCell>
        <mxCell id="ScA0WdmaVUyXN7xJSevH-2" value="Check Previous&lt;br&gt;IBAN Status" style="shape=umlFrame;whiteSpace=wrap;html=1;width=108;height=36;fillColor=#b0e3e6;strokeColor=#0e8088;" parent="ScA0WdmaVUyXN7xJSevH-1" vertex="1">
          <mxGeometry x="528" y="141" width="1588" height="556" as="geometry" />
        </mxCell>
        <mxCell id="ScA0WdmaVUyXN7xJSevH-3" value="Check is ARB customer" style="shape=umlFrame;whiteSpace=wrap;html=1;width=108;height=36;fillColor=#e1d5e7;strokeColor=#9673a6;" parent="ScA0WdmaVUyXN7xJSevH-1" vertex="1">
          <mxGeometry x="272" y="-202" width="2265" height="1004" as="geometry" />
        </mxCell>
      </root>
    </mxGraphModel>
  </diagram>
  <diagram name="Iban-Verification-upload" id="_Wxe6OCnfM-kKDdPgukm">
    <mxGraphModel dx="1034" dy="519" grid="1" gridSize="4" guides="1" tooltips="1" connect="1" arrows="1" fold="1" page="1" pageScale="1" pageWidth="850" pageHeight="1100" math="0" shadow="0">
      <root>
        <mxCell id="Xjz4rafsNB77egZuC7tv-0" />
        <mxCell id="Xjz4rafsNB77egZuC7tv-1" parent="Xjz4rafsNB77egZuC7tv-0" />
        <mxCell id="Xjz4rafsNB77egZuC7tv-8" value="Loan Execution MS" style="shape=umlLifeline;perimeter=lifelinePerimeter;container=0;collapsible=0;recursiveResize=0;rounded=0;shadow=0;strokeWidth=1;" parent="Xjz4rafsNB77egZuC7tv-1" vertex="1">
          <mxGeometry x="792" y="924" width="115.5" height="656" as="geometry" />
        </mxCell>
        <mxCell id="Xjz4rafsNB77egZuC7tv-9" value="Emkan APP" style="shape=umlLifeline;perimeter=lifelinePerimeter;container=0;collapsible=0;recursiveResize=0;rounded=0;shadow=0;strokeWidth=1;" parent="Xjz4rafsNB77egZuC7tv-1" vertex="1">
          <mxGeometry x="540" y="924" width="103" height="660" as="geometry" />
        </mxCell>
        <mxCell id="Xjz4rafsNB77egZuC7tv-11" value="Customer" style="shape=umlLifeline;participant=umlActor;perimeter=lifelinePerimeter;whiteSpace=wrap;html=1;container=1;collapsible=0;recursiveResize=0;verticalAlign=top;spacingTop=36;outlineConnect=0;" parent="Xjz4rafsNB77egZuC7tv-1" vertex="1">
          <mxGeometry x="320" y="916" width="20" height="672" as="geometry" />
        </mxCell>
        <mxCell id="Xjz4rafsNB77egZuC7tv-12" value="Upload IBAN Document" style="shape=note;size=20;whiteSpace=wrap;html=1;rounded=1;shadow=0;fontSize=12;strokeWidth=1;" parent="Xjz4rafsNB77egZuC7tv-1" vertex="1">
          <mxGeometry x="1120" y="772" width="310" height="60" as="geometry" />
        </mxCell>
        <mxCell id="Xjz4rafsNB77egZuC7tv-13" value="" style="html=1;points=[];perimeter=orthogonalPerimeter;rounded=1;shadow=0;fontSize=12;strokeWidth=1;" parent="Xjz4rafsNB77egZuC7tv-1" vertex="1">
          <mxGeometry x="586.5" y="1008" width="10" height="484" as="geometry" />
        </mxCell>
        <mxCell id="Xjz4rafsNB77egZuC7tv-24" value="Kastle" style="shape=umlLifeline;perimeter=lifelinePerimeter;container=0;collapsible=0;recursiveResize=0;rounded=0;shadow=0;strokeWidth=1;" parent="Xjz4rafsNB77egZuC7tv-1" vertex="1">
          <mxGeometry x="2000" y="928" width="112" height="652" as="geometry" />
        </mxCell>
        <mxCell id="Xjz4rafsNB77egZuC7tv-33" value="Dashboard MS" style="shape=umlLifeline;perimeter=lifelinePerimeter;container=0;collapsible=0;recursiveResize=0;rounded=0;shadow=0;strokeWidth=1;" parent="Xjz4rafsNB77egZuC7tv-1" vertex="1">
          <mxGeometry x="1416" y="924" width="112" height="656" as="geometry" />
        </mxCell>
        <mxCell id="Xjz4rafsNB77egZuC7tv-35" value="" style="endArrow=classic;html=1;rounded=0;entryX=0.5;entryY=0.071;entryDx=0;entryDy=0;entryPerimeter=0;exitX=0.825;exitY=0.078;exitDx=0;exitDy=0;exitPerimeter=0;" parent="Xjz4rafsNB77egZuC7tv-1" target="Xjz4rafsNB77egZuC7tv-37" edge="1">
          <mxGeometry width="50" height="50" relative="1" as="geometry">
            <mxPoint x="598" y="1145" as="sourcePoint" />
            <mxPoint x="942" y="1145" as="targetPoint" />
          </mxGeometry>
        </mxCell>
        <mxCell id="Xjz4rafsNB77egZuC7tv-36" value="/getRequiredDocuments" style="text;html=1;align=center;verticalAlign=middle;resizable=0;points=[];autosize=1;strokeColor=none;" parent="Xjz4rafsNB77egZuC7tv-1" vertex="1">
          <mxGeometry x="850" y="1114" width="152" height="28" as="geometry" />
        </mxCell>
        <mxCell id="Xjz4rafsNB77egZuC7tv-37" value="" style="html=1;points=[];perimeter=orthogonalPerimeter;rounded=1;shadow=0;fontSize=12;strokeWidth=1;" parent="Xjz4rafsNB77egZuC7tv-1" vertex="1">
          <mxGeometry x="1223" y="1142" width="10" height="56" as="geometry" />
        </mxCell>
        <mxCell id="Xjz4rafsNB77egZuC7tv-38" value="return" style="html=1;verticalAlign=bottom;endArrow=open;dashed=1;endSize=8;rounded=0;shadow=0;fontSize=12;fontColor=#000000;entryX=0.528;entryY=0.143;entryDx=0;entryDy=0;entryPerimeter=0;" parent="Xjz4rafsNB77egZuC7tv-1" source="Xjz4rafsNB77egZuC7tv-43" edge="1">
          <mxGeometry x="0.0011" relative="1" as="geometry">
            <mxPoint x="597.9839999999999" y="1190.8899999999999" as="targetPoint" />
            <mxPoint x="852" y="1191" as="sourcePoint" />
            <mxPoint as="offset" />
          </mxGeometry>
        </mxCell>
        <mxCell id="Xjz4rafsNB77egZuC7tv-39" value="" style="endArrow=classic;html=1;rounded=0;entryX=0.2;entryY=0.077;entryDx=0;entryDy=0;entryPerimeter=0;exitX=1;exitY=0.089;exitDx=0;exitDy=0;exitPerimeter=0;" parent="Xjz4rafsNB77egZuC7tv-1" source="Xjz4rafsNB77egZuC7tv-37" edge="1">
          <mxGeometry width="50" height="50" relative="1" as="geometry">
            <mxPoint x="1709" y="1146" as="sourcePoint" />
            <mxPoint x="2053" y="1146" as="targetPoint" />
          </mxGeometry>
        </mxCell>
        <mxCell id="Xjz4rafsNB77egZuC7tv-40" value="/getRequiredDocuments" style="text;html=1;align=center;verticalAlign=middle;resizable=0;points=[];autosize=1;strokeColor=none;" parent="Xjz4rafsNB77egZuC7tv-1" vertex="1">
          <mxGeometry x="1564" y="1114" width="152" height="28" as="geometry" />
        </mxCell>
        <mxCell id="Xjz4rafsNB77egZuC7tv-41" value="" style="html=1;points=[];perimeter=orthogonalPerimeter;rounded=1;shadow=0;fontSize=12;strokeWidth=1;" parent="Xjz4rafsNB77egZuC7tv-1" vertex="1">
          <mxGeometry x="2051" y="1139" width="10" height="56" as="geometry" />
        </mxCell>
        <mxCell id="Xjz4rafsNB77egZuC7tv-42" value="return" style="html=1;verticalAlign=bottom;endArrow=open;dashed=1;endSize=8;rounded=0;shadow=0;fontSize=12;fontColor=#000000;exitX=0;exitY=0.923;exitDx=0;exitDy=0;exitPerimeter=0;" parent="Xjz4rafsNB77egZuC7tv-1" target="Xjz4rafsNB77egZuC7tv-37" edge="1">
          <mxGeometry x="0.004" relative="1" as="geometry">
            <mxPoint x="1708.984" y="1191.8899999999999" as="targetPoint" />
            <mxPoint x="2051" y="1191.996" as="sourcePoint" />
            <mxPoint as="offset" />
          </mxGeometry>
        </mxCell>
        <mxCell id="Xjz4rafsNB77egZuC7tv-43" value="DMS MS" style="shape=umlLifeline;perimeter=lifelinePerimeter;container=0;collapsible=0;recursiveResize=0;rounded=0;shadow=0;strokeWidth=1;" parent="Xjz4rafsNB77egZuC7tv-1" vertex="1">
          <mxGeometry x="1172" y="925" width="112" height="655" as="geometry" />
        </mxCell>
        <mxCell id="Xjz4rafsNB77egZuC7tv-44" style="edgeStyle=orthogonalEdgeStyle;rounded=0;orthogonalLoop=1;jettySize=auto;html=1;entryX=0.25;entryY=0.024;entryDx=0;entryDy=0;entryPerimeter=0;" parent="Xjz4rafsNB77egZuC7tv-1" edge="1">
          <mxGeometry relative="1" as="geometry">
            <mxPoint x="330" y="1273" as="sourcePoint" />
            <mxPoint x="589" y="1273.232" as="targetPoint" />
            <Array as="points" />
          </mxGeometry>
        </mxCell>
        <mxCell id="Xjz4rafsNB77egZuC7tv-45" value="submint IBAN" style="text;html=1;align=center;verticalAlign=middle;resizable=0;points=[];autosize=1;strokeColor=none;" parent="Xjz4rafsNB77egZuC7tv-1" vertex="1">
          <mxGeometry x="398" y="1239" width="96" height="28" as="geometry" />
        </mxCell>
        <mxCell id="Xjz4rafsNB77egZuC7tv-46" value="" style="endArrow=classic;html=1;rounded=0;entryX=-0.071;entryY=0.081;entryDx=0;entryDy=0;entryPerimeter=0;" parent="Xjz4rafsNB77egZuC7tv-1" target="Xjz4rafsNB77egZuC7tv-49" edge="1">
          <mxGeometry width="50" height="50" relative="1" as="geometry">
            <mxPoint x="860" y="1289" as="sourcePoint" />
            <mxPoint x="1472" y="1290.976" as="targetPoint" />
          </mxGeometry>
        </mxCell>
        <mxCell id="Xjz4rafsNB77egZuC7tv-47" value="/uploadDocuments" style="text;html=1;align=center;verticalAlign=middle;resizable=0;points=[];autosize=1;strokeColor=none;" parent="Xjz4rafsNB77egZuC7tv-1" vertex="1">
          <mxGeometry x="976" y="1260" width="124" height="28" as="geometry" />
        </mxCell>
        <mxCell id="Xjz4rafsNB77egZuC7tv-48" value="return" style="html=1;verticalAlign=bottom;endArrow=open;dashed=1;endSize=8;rounded=0;shadow=0;fontSize=12;fontColor=#000000;" parent="Xjz4rafsNB77egZuC7tv-1" edge="1">
          <mxGeometry x="0.004" relative="1" as="geometry">
            <mxPoint x="852" y="1334" as="targetPoint" />
            <mxPoint x="1227.5" y="1334" as="sourcePoint" />
            <mxPoint as="offset" />
          </mxGeometry>
        </mxCell>
        <mxCell id="Xjz4rafsNB77egZuC7tv-49" value="" style="html=1;points=[];perimeter=orthogonalPerimeter;rounded=1;shadow=0;fontSize=12;strokeWidth=1;" parent="Xjz4rafsNB77egZuC7tv-1" vertex="1">
          <mxGeometry x="1223" y="1284" width="10" height="56" as="geometry" />
        </mxCell>
        <mxCell id="Xjz4rafsNB77egZuC7tv-50" style="edgeStyle=orthogonalEdgeStyle;rounded=0;orthogonalLoop=1;jettySize=auto;html=1;" parent="Xjz4rafsNB77egZuC7tv-1" edge="1">
          <mxGeometry relative="1" as="geometry">
            <mxPoint x="600" y="1272" as="sourcePoint" />
            <mxPoint x="844" y="1272" as="targetPoint" />
            <Array as="points" />
          </mxGeometry>
        </mxCell>
        <mxCell id="Xjz4rafsNB77egZuC7tv-51" value="/UploadIbanCertificate" style="text;html=1;align=center;verticalAlign=middle;resizable=0;points=[];autosize=1;strokeColor=none;" parent="Xjz4rafsNB77egZuC7tv-1" vertex="1">
          <mxGeometry x="647" y="1242" width="140" height="28" as="geometry" />
        </mxCell>
        <mxCell id="Xjz4rafsNB77egZuC7tv-52" value="" style="html=1;points=[];perimeter=orthogonalPerimeter;rounded=1;shadow=0;fontSize=12;strokeWidth=1;" parent="Xjz4rafsNB77egZuC7tv-1" vertex="1">
          <mxGeometry x="844.75" y="1260" width="10" height="208" as="geometry" />
        </mxCell>
        <mxCell id="Xjz4rafsNB77egZuC7tv-53" value="return" style="html=1;verticalAlign=bottom;endArrow=open;dashed=1;endSize=8;rounded=0;shadow=0;fontSize=12;fontColor=#000000;entryX=0.528;entryY=0.143;entryDx=0;entryDy=0;entryPerimeter=0;" parent="Xjz4rafsNB77egZuC7tv-1" edge="1">
          <mxGeometry x="0.004" relative="1" as="geometry">
            <mxPoint x="596.5039999999999" y="1462" as="targetPoint" />
            <mxPoint x="844" y="1462" as="sourcePoint" />
            <mxPoint as="offset" />
          </mxGeometry>
        </mxCell>
        <mxCell id="Xjz4rafsNB77egZuC7tv-54" value="" style="endArrow=classic;html=1;rounded=0;entryX=-0.267;entryY=0.06;entryDx=0;entryDy=0;entryPerimeter=0;" parent="Xjz4rafsNB77egZuC7tv-1" target="Xjz4rafsNB77egZuC7tv-57" edge="1">
          <mxGeometry width="50" height="50" relative="1" as="geometry">
            <mxPoint x="864" y="1395" as="sourcePoint" />
            <mxPoint x="2330" y="1395" as="targetPoint" />
          </mxGeometry>
        </mxCell>
        <mxCell id="Xjz4rafsNB77egZuC7tv-55" value="/moveToNextStage" style="text;html=1;align=center;verticalAlign=middle;resizable=0;points=[];autosize=1;strokeColor=none;" parent="Xjz4rafsNB77egZuC7tv-1" vertex="1">
          <mxGeometry x="1400" y="1365" width="124" height="28" as="geometry" />
        </mxCell>
        <mxCell id="Xjz4rafsNB77egZuC7tv-56" value="return" style="html=1;verticalAlign=bottom;endArrow=open;dashed=1;endSize=8;rounded=0;shadow=0;fontSize=12;fontColor=#000000;entryX=1.025;entryY=0.299;entryDx=0;entryDy=0;entryPerimeter=0;exitX=-0.183;exitY=0.908;exitDx=0;exitDy=0;exitPerimeter=0;" parent="Xjz4rafsNB77egZuC7tv-1" source="Xjz4rafsNB77egZuC7tv-57" edge="1">
          <mxGeometry x="0.004" relative="1" as="geometry">
            <mxPoint x="859" y="1443" as="targetPoint" />
            <mxPoint x="2335" y="1443" as="sourcePoint" />
            <mxPoint as="offset" />
          </mxGeometry>
        </mxCell>
        <mxCell id="Xjz4rafsNB77egZuC7tv-57" value="" style="html=1;points=[];perimeter=orthogonalPerimeter;rounded=1;shadow=0;fontSize=12;strokeWidth=1;" parent="Xjz4rafsNB77egZuC7tv-1" vertex="1">
          <mxGeometry x="2051" y="1392" width="10" height="56" as="geometry" />
        </mxCell>
        <mxCell id="JrE0TGdlNlSHT82Dar08-0" value="" style="endArrow=classic;html=1;rounded=0;entryX=0.5;entryY=0.071;entryDx=0;entryDy=0;entryPerimeter=0;exitX=0.825;exitY=0.078;exitDx=0;exitDy=0;exitPerimeter=0;" parent="Xjz4rafsNB77egZuC7tv-1" target="JrE0TGdlNlSHT82Dar08-1" edge="1">
          <mxGeometry width="50" height="50" relative="1" as="geometry">
            <mxPoint x="600.5" y="1025" as="sourcePoint" />
            <mxPoint x="944.5" y="1025" as="targetPoint" />
          </mxGeometry>
        </mxCell>
        <mxCell id="JrE0TGdlNlSHT82Dar08-1" value="" style="html=1;points=[];perimeter=orthogonalPerimeter;rounded=1;shadow=0;fontSize=12;strokeWidth=1;" parent="Xjz4rafsNB77egZuC7tv-1" vertex="1">
          <mxGeometry x="1469.5" y="1022" width="10" height="56" as="geometry" />
        </mxCell>
        <mxCell id="JrE0TGdlNlSHT82Dar08-2" value="return" style="html=1;verticalAlign=bottom;endArrow=open;dashed=1;endSize=8;rounded=0;shadow=0;fontSize=12;fontColor=#000000;entryX=0.528;entryY=0.143;entryDx=0;entryDy=0;entryPerimeter=0;exitX=-0.082;exitY=0.872;exitDx=0;exitDy=0;exitPerimeter=0;" parent="Xjz4rafsNB77egZuC7tv-1" source="JrE0TGdlNlSHT82Dar08-1" edge="1">
          <mxGeometry x="0.004" relative="1" as="geometry">
            <mxPoint x="600.4839999999999" y="1070.8899999999999" as="targetPoint" />
            <mxPoint x="1466.5" y="1071" as="sourcePoint" />
            <mxPoint as="offset" />
          </mxGeometry>
        </mxCell>
        <mxCell id="JrE0TGdlNlSHT82Dar08-3" value="" style="endArrow=classic;html=1;rounded=0;entryX=0.2;entryY=0.077;entryDx=0;entryDy=0;entryPerimeter=0;exitX=1;exitY=0.089;exitDx=0;exitDy=0;exitPerimeter=0;" parent="Xjz4rafsNB77egZuC7tv-1" source="JrE0TGdlNlSHT82Dar08-1" edge="1">
          <mxGeometry width="50" height="50" relative="1" as="geometry">
            <mxPoint x="1711.5" y="1026" as="sourcePoint" />
            <mxPoint x="2055.5" y="1026" as="targetPoint" />
          </mxGeometry>
        </mxCell>
        <mxCell id="JrE0TGdlNlSHT82Dar08-4" value="" style="html=1;points=[];perimeter=orthogonalPerimeter;rounded=1;shadow=0;fontSize=12;strokeWidth=1;" parent="Xjz4rafsNB77egZuC7tv-1" vertex="1">
          <mxGeometry x="2053.5" y="1019" width="10" height="56" as="geometry" />
        </mxCell>
        <mxCell id="JrE0TGdlNlSHT82Dar08-5" value="return" style="html=1;verticalAlign=bottom;endArrow=open;dashed=1;endSize=8;rounded=0;shadow=0;fontSize=12;fontColor=#000000;exitX=0;exitY=0.923;exitDx=0;exitDy=0;exitPerimeter=0;" parent="Xjz4rafsNB77egZuC7tv-1" target="JrE0TGdlNlSHT82Dar08-1" edge="1">
          <mxGeometry x="0.004" relative="1" as="geometry">
            <mxPoint x="1711.484" y="1071.8899999999999" as="targetPoint" />
            <mxPoint x="2053.5" y="1071.996" as="sourcePoint" />
            <mxPoint as="offset" />
          </mxGeometry>
        </mxCell>
        <mxCell id="JrE0TGdlNlSHT82Dar08-6" value="Upload IbanScreen" style="edgeStyle=orthogonalEdgeStyle;html=1;align=left;spacingLeft=2;endArrow=block;rounded=0;entryX=1;entryY=0;" parent="Xjz4rafsNB77egZuC7tv-1" edge="1">
          <mxGeometry x="-0.2593" y="11" relative="1" as="geometry">
            <mxPoint x="601" y="1094" as="sourcePoint" />
            <Array as="points">
              <mxPoint x="615" y="1094" />
              <mxPoint x="615" y="1114" />
            </Array>
            <mxPoint as="offset" />
            <mxPoint x="600" y="1114" as="targetPoint" />
          </mxGeometry>
        </mxCell>
        <mxCell id="JrE0TGdlNlSHT82Dar08-7" value="uploadIban(AppId)" style="edgeLabel;html=1;align=center;verticalAlign=middle;resizable=0;points=[];" parent="Xjz4rafsNB77egZuC7tv-1" vertex="1" connectable="0">
          <mxGeometry x="1022.500909090909" y="1082" as="geometry" />
        </mxCell>
        <mxCell id="JrE0TGdlNlSHT82Dar08-8" value="uploadIban(AppId)" style="edgeLabel;html=1;align=center;verticalAlign=middle;resizable=0;points=[];" parent="Xjz4rafsNB77egZuC7tv-1" vertex="1" connectable="0">
          <mxGeometry x="1757.5009090909089" y="1082" as="geometry" />
        </mxCell>
        <mxCell id="cxsEptDZuWy5YYdcHhrA-0" value="/dashboard" style="text;html=1;align=center;verticalAlign=middle;resizable=0;points=[];autosize=1;strokeColor=none;" parent="Xjz4rafsNB77egZuC7tv-1" vertex="1">
          <mxGeometry x="984" y="994" width="84" height="28" as="geometry" />
        </mxCell>
        <mxCell id="cxsEptDZuWy5YYdcHhrA-1" value="/dashboard" style="text;html=1;align=center;verticalAlign=middle;resizable=0;points=[];autosize=1;strokeColor=none;" parent="Xjz4rafsNB77egZuC7tv-1" vertex="1">
          <mxGeometry x="1720" y="992" width="84" height="28" as="geometry" />
        </mxCell>
      </root>
    </mxGraphModel>
  </diagram>
  <diagram id="Sg9eps-l5GmDIR9hHya4" name="Loan stages">
    <mxGraphModel dx="3965" dy="1298" grid="1" gridSize="10" guides="1" tooltips="1" connect="1" arrows="1" fold="1" page="1" pageScale="1" pageWidth="850" pageHeight="1100" math="0" shadow="0">
      <root>
        <mxCell id="0" />
        <mxCell id="1" parent="0" />
        <mxCell id="kqB1ieMHaO2b_2sBumih-20" value="" style="rounded=0;whiteSpace=wrap;html=1;fillColor=none;strokeWidth=2;glass=0;sketch=0;shadow=0;" parent="1" vertex="1">
          <mxGeometry x="-320" y="140" width="730" height="145" as="geometry" />
        </mxCell>
        <mxCell id="kqB1ieMHaO2b_2sBumih-21" value="" style="rounded=0;whiteSpace=wrap;html=1;fillColor=none;strokeWidth=2;glass=0;sketch=0;shadow=0;" parent="1" vertex="1">
          <mxGeometry x="-319" y="460" width="2570" height="130" as="geometry" />
        </mxCell>
        <mxCell id="kqB1ieMHaO2b_2sBumih-22" value="" style="rounded=0;whiteSpace=wrap;html=1;fillColor=none;strokeWidth=2;glass=0;sketch=0;shadow=0;" parent="1" vertex="1">
          <mxGeometry x="-319" y="300" width="229" height="145" as="geometry" />
        </mxCell>
        <mxCell id="kqB1ieMHaO2b_2sBumih-23" value="Create &lt;br&gt;APP" style="shape=step;whiteSpace=wrap;html=1;fontSize=28;fillColor=#0080FF;fontColor=#FFFFFF;strokeColor=none;" parent="1" vertex="1">
          <mxGeometry x="-130" y="190" width="170" height="80" as="geometry" />
        </mxCell>
        <mxCell id="kqB1ieMHaO2b_2sBumih-24" value="Data&lt;br&gt;&amp;nbsp;Entry" style="shape=step;whiteSpace=wrap;html=1;fontSize=28;fillColor=#0075E8;fontColor=#FFFFFF;strokeColor=none;" parent="1" vertex="1">
          <mxGeometry x="30" y="190" width="170" height="80" as="geometry" />
        </mxCell>
        <mxCell id="kqB1ieMHaO2b_2sBumih-25" value="Offering" style="shape=step;whiteSpace=wrap;html=1;fontSize=28;fillColor=#0059B0;fontColor=#FFFFFF;strokeColor=none;" parent="1" vertex="1">
          <mxGeometry x="-300" y="340" width="170" height="80" as="geometry" />
        </mxCell>
        <mxCell id="kqB1ieMHaO2b_2sBumih-26" value="Commodity &lt;br&gt;Purchase Maker" style="shape=step;whiteSpace=wrap;html=1;fontSize=28;fillColor=#004D99;fontColor=#FFFFFF;strokeColor=none;" parent="1" vertex="1">
          <mxGeometry x="261" y="491" width="300" height="80" as="geometry" />
        </mxCell>
        <mxCell id="kqB1ieMHaO2b_2sBumih-27" value="Loan Origination" style="text;html=1;strokeColor=none;fillColor=none;align=center;verticalAlign=middle;whiteSpace=wrap;rounded=0;shadow=0;glass=0;sketch=0;fontStyle=1" parent="1" vertex="1">
          <mxGeometry x="-300" y="150" width="130" height="20" as="geometry" />
        </mxCell>
        <mxCell id="kqB1ieMHaO2b_2sBumih-28" value="Loan Offering" style="text;html=1;strokeColor=none;fillColor=none;align=center;verticalAlign=middle;whiteSpace=wrap;rounded=0;shadow=0;glass=0;sketch=0;fontStyle=1" parent="1" vertex="1">
          <mxGeometry x="-320" y="300" width="130" height="20" as="geometry" />
        </mxCell>
        <mxCell id="kqB1ieMHaO2b_2sBumih-30" value="Sanad PN" style="shape=step;whiteSpace=wrap;html=1;fontSize=28;fillColor=#004D99;fontColor=#FFFFFF;strokeColor=none;" parent="1" vertex="1">
          <mxGeometry x="731" y="491" width="200" height="80" as="geometry" />
        </mxCell>
        <mxCell id="kqB1ieMHaO2b_2sBumih-31" value="Loan Execution" style="text;html=1;strokeColor=none;fillColor=none;align=center;verticalAlign=middle;whiteSpace=wrap;rounded=0;shadow=0;glass=0;sketch=0;fontStyle=1" parent="1" vertex="1">
          <mxGeometry x="-320" y="460" width="130" height="20" as="geometry" />
        </mxCell>
        <mxCell id="kqB1ieMHaO2b_2sBumih-32" value="Commodity&lt;br&gt;Delivery" style="shape=step;whiteSpace=wrap;html=1;fontSize=28;fillColor=#004D99;fontColor=#FFFFFF;strokeColor=none;" parent="1" vertex="1">
          <mxGeometry x="1171" y="491" width="289" height="80" as="geometry" />
        </mxCell>
        <mxCell id="kqB1ieMHaO2b_2sBumih-33" value="Credit" style="shape=step;whiteSpace=wrap;html=1;fontSize=28;fillColor=#0075E8;fontColor=#FFFFFF;strokeColor=none;" parent="1" vertex="1">
          <mxGeometry x="190" y="190" width="170" height="80" as="geometry" />
        </mxCell>
        <mxCell id="kqB1ieMHaO2b_2sBumih-34" value="Commodity &lt;br&gt;Sales Maker" style="shape=step;whiteSpace=wrap;html=1;fontSize=28;fillColor=#004D99;fontColor=#FFFFFF;strokeColor=none;" parent="1" vertex="1">
          <mxGeometry x="911" y="491" width="300" height="80" as="geometry" />
        </mxCell>
        <mxCell id="kqB1ieMHaO2b_2sBumih-35" value="Upload IBAN" style="shape=step;whiteSpace=wrap;html=1;fontSize=28;fillColor=#3333FF;fontColor=#FFFFFF;strokeColor=none;" parent="1" vertex="1">
          <mxGeometry x="-20" y="491" width="289" height="80" as="geometry" />
        </mxCell>
        <mxCell id="kqB1ieMHaO2b_2sBumih-36" value="Remittance" style="shape=step;whiteSpace=wrap;html=1;fontSize=28;fillColor=#004D99;fontColor=#FFFFFF;strokeColor=none;" parent="1" vertex="1">
          <mxGeometry x="1699" y="491" width="289" height="80" as="geometry" />
        </mxCell>
        <mxCell id="kqB1ieMHaO2b_2sBumih-37" value="Document &lt;br&gt;Custody" style="shape=step;whiteSpace=wrap;html=1;fontSize=28;fillColor=#004D99;fontColor=#FFFFFF;strokeColor=none;" parent="1" vertex="1">
          <mxGeometry x="1956" y="491" width="289" height="80" as="geometry" />
        </mxCell>
        <mxCell id="kqB1ieMHaO2b_2sBumih-38" value="New &lt;br&gt;Lead" style="shape=step;whiteSpace=wrap;html=1;fontSize=28;fillColor=#0080FF;fontColor=#FFFFFF;strokeColor=none;" parent="1" vertex="1">
          <mxGeometry x="-300" y="190" width="170" height="80" as="geometry" />
        </mxCell>
        <mxCell id="kqB1ieMHaO2b_2sBumih-39" value="Disbursement" style="shape=step;whiteSpace=wrap;html=1;fontSize=28;fillColor=#004D99;fontColor=#FFFFFF;strokeColor=none;" parent="1" vertex="1">
          <mxGeometry x="1437" y="491" width="289" height="80" as="geometry" />
        </mxCell>
        <mxCell id="kqB1ieMHaO2b_2sBumih-41" value="Contract Signing" style="shape=step;whiteSpace=wrap;html=1;fontSize=28;fillColor=#004D99;fontColor=#FFFFFF;strokeColor=none;" parent="1" vertex="1">
          <mxGeometry x="541" y="491" width="200" height="80" as="geometry" />
        </mxCell>
        <mxCell id="mEY4JPIZkDHMue-gYk7i-2" value="Update IBAN" style="shape=step;whiteSpace=wrap;html=1;fontSize=28;fillColor=#3333FF;fontColor=#FFFFFF;strokeColor=none;" parent="1" vertex="1">
          <mxGeometry x="-309" y="491" width="289" height="80" as="geometry" />
        </mxCell>
      </root>
    </mxGraphModel>
  </diagram>
</mxfile>
